$MeshFormat
4.1 0 8
$EndMeshFormat
$Entities
0 0 1 0
1 1.5 1.645838141441345 0 22.5 13.35416316986084 2 0 0 
$EndEntities
$Nodes
1 680 1 3009
2 1 0 680
1
2
3
6
7
8
9
12
15
18
21
24
27
30
33
36
39
42
49
51
55
56
57
60
63
66
69
72
75
78
81
84
87
90
93
96
99
102
105
108
111
114
117
120
123
126
129
132
135
138
141
144
147
150
153
156
163
165
169
170
171
174
177
180
183
186
189
192
195
198
201
204
207
210
213
216
219
222
225
228
231
234
237
240
243
246
249
252
255
258
261
264
267
270
273
276
279
282
285
288
291
294
301
303
307
308
309
312
315
318
321
324
327
330
333
336
339
342
345
348
351
354
357
360
363
366
369
372
375
378
381
384
387
390
393
396
399
402
405
408
415
417
421
422
423
426
429
432
435
438
441
444
447
450
453
456
459
462
465
468
471
474
477
480
483
486
489
492
495
498
501
504
507
510
513
516
519
522
525
528
531
534
537
540
543
546
553
555
559
560
561
564
567
570
573
576
579
582
585
588
591
594
597
600
603
606
609
612
615
618
621
624
627
630
633
636
639
642
645
648
651
654
657
660
667
669
673
674
675
678
681
684
687
690
693
696
699
702
705
708
711
714
717
720
723
726
729
732
735
738
741
744
747
750
753
756
759
762
765
768
771
774
777
780
783
786
789
792
795
798
805
807
811
812
813
816
819
822
825
828
831
834
837
840
843
846
853
855
859
860
861
864
865
867
871
872
873
876
879
882
885
888
891
894
897
900
903
906
913
915
919
920
921
924
927
930
933
936
939
942
945
948
951
954
957
960
963
966
969
972
975
978
981
984
987
990
993
996
999
1002
1005
1008
1011
1014
1017
1020
1027
1029
1033
1034
1035
1038
1041
1044
1047
1050
1053
1056
1059
1062
1065
1068
1071
1074
1077
1080
1083
1086
1089
1092
1095
1098
1101
1104
1107
1110
1113
1116
1119
1122
1125
1128
1131
1134
1137
1140
1143
1146
1149
1152
1155
1158
1165
1167
1171
1172
1173
1176
1179
1182
1185
1188
1191
1194
1197
1200
1203
1206
1209
1212
1215
1218
1221
1224
1227
1230
1233
1236
1239
1242
1245
1248
1251
1254
1257
1260
1263
1266
1269
1272
1279
1281
1285
1286
1287
1290
1293
1296
1299
1302
1305
1308
1311
1314
1317
1320
1323
1326
1329
1332
1335
1338
1341
1344
1347
1350
1353
1356
1359
1362
1365
1368
1371
1374
1377
1380
1383
1386
1389
1392
1395
1398
1401
1404
1407
1410
1417
1419
1423
1424
1425
1428
1431
1434
1437
1440
1443
1446
1449
1452
1455
1458
1461
1464
1467
1470
1473
1476
1479
1482
1485
1488
1491
1494
1497
1500
1503
1506
1509
1512
1515
1518
1521
1524
1531
1533
1537
1538
1539
1542
1545
1548
1551
1554
1557
1560
1563
1566
1569
1572
1575
1578
1581
1584
1587
1590
1593
1596
1599
1602
1605
1608
1611
1614
1617
1620
1623
1626
1629
1632
1635
1638
1641
1644
1647
1650
1653
1656
1659
1662
1669
1671
1675
1676
1677
1680
1683
1686
1689
1692
1695
1698
1701
1704
1707
1710
1717
1719
1724
1728
1731
1733
1751
2577
2580
2582
2586
2589
2614
2616
2622
2628
2634
2643
2649
2655
2661
2664
2667
2670
2673
2676
2679
2682
2685
2688
2691
2694
2697
2700
2703
2706
2709
2712
2715
2718
2721
2724
2727
2730
2733
2736
2739
2742
2745
2748
2751
2754
2757
2760
2763
2766
2769
2772
2851
2853
2859
2865
2871
2880
2886
2892
2898
2901
2904
2907
2910
2913
2916
2919
2922
2925
2928
2931
2934
2937
2940
2943
2946
2949
2952
2955
2958
2961
2964
2967
2970
2973
2976
2979
2982
2985
2988
2991
2994
2997
3000
3003
3006
3009
19.39999961853027 7.799999713897705 0.300000011920929
21.60000038146973 7.799999713897705 0.300000011920929
19.39999961853027 7.799999713897705 0
21.60000038146973 7.799999713897705 0
18.89999961853027 7.299999713897705 0
18.89999961853027 7.299999713897705 0.300000011920929
18.91253662109375 7.41126012802124 0
18.91253662109375 7.41126012802124 0.300000011920929
18.94951629638672 7.516941547393799 0
18.94951629638672 7.516941547393799 0.300000011920929
19.00908470153809 7.61174488067627 0
19.00908470153809 7.61174488067627 0.300000011920929
19.08825492858887 7.690915584564209 0
19.08825492858887 7.690915584564209 0.300000011920929
19.18305778503418 7.750484466552734 0
19.18305778503418 7.750484466552734 0.300000011920929
19.28874015808105 7.787463665008545 0
19.28874015808105 7.787463665008545 0.300000011920929
18.89999961853027 3.145838260650635 0.300000011920929
18.89999961853027 3.145838260650635 0
17.10000038146973 3.145838260650635 0
17.10000038146973 3.145838260650635 0.300000011920929
17.11367225646973 2.989554882049561 0
17.11367225646973 2.989554882049561 0.300000011920929
17.15427589416504 2.838020086288452 0.300000011920929
17.15427589416504 2.838020086288452 0
17.22057723999023 2.695838212966919 0.300000011920929
17.22057723999023 2.695838212966919 0
17.31056022644043 2.567329406738281 0.300000011920929
17.31056022644043 2.567329406738281 0
17.4214916229248 2.456398248672485 0.300000011920929
17.4214916229248 2.456398248672485 0
17.54999923706055 2.36641526222229 0.300000011920929
17.54999923706055 2.36641526222229 0
17.69218254089355 2.300114870071411 0.300000011920929
17.69218254089355 2.300114870071411 0
17.84371757507324 2.259511232376099 0.300000011920929
17.84371757507324 2.259511232376099 0
18 2.245838165283203 0.300000011920929
18 2.245838165283203 0
18.15628433227539 2.259511232376099 0.300000011920929
18.15628433227539 2.259511232376099 0
18.30781745910645 2.300114870071411 0.300000011920929
18.30781745910645 2.300114870071411 0
18.45000076293945 2.36641526222229 0.300000011920929
18.45000076293945 2.36641526222229 0
18.5785083770752 2.456398248672485 0.300000011920929
18.5785083770752 2.456398248672485 0
18.68943977355957 2.567329406738281 0.300000011920929
18.68943977355957 2.567329406738281 0
18.77942276000977 2.695838212966919 0.300000011920929
18.77942276000977 2.695838212966919 0
18.84572410583496 2.838020086288452 0.300000011920929
18.84572410583496 2.838020086288452 0
18.88632774353027 2.989554882049561 0.300000011920929
18.88632774353027 2.989554882049561 0
17.10000038146973 11.85416316986084 0.300000011920929
17.10000038146973 11.85416316986084 0
14.10000038146973 11.85416316986084 0
14.10000038146973 11.85416316986084 0.300000011920929
14.11526775360107 12.06763553619385 0
14.11526775360107 12.06763553619385 0.300000011920929
14.1607608795166 12.27676200866699 0
14.1607608795166 12.27676200866699 0.300000011920929
14.23555183410645 12.47728538513184 0
14.23555183410645 12.47728538513184 0.300000011920929
14.33811950683594 12.66512393951416 0
14.33811950683594 12.66512393951416 0.300000011920929
14.46637535095215 12.83645439147949 0
14.46637535095215 12.83645439147949 0.300000011920929
14.61770915985107 12.9877872467041 0
14.61770915985107 12.9877872467041 0.300000011920929
14.78903865814209 13.11604309082031 0
14.78903865814209 13.11604309082031 0.300000011920929
14.97687721252441 13.2186107635498 0
14.97687721252441 13.2186107635498 0.300000011920929
15.17740154266357 13.29340267181396 0
15.17740154266357 13.29340267181396 0.300000011920929
15.38652801513672 13.33889484405518 0
15.38652801513672 13.33889484405518 0.300000011920929
15.60000038146973 13.35416316986084 0
15.60000038146973 13.35416316986084 0.300000011920929
15.81347274780273 13.33889484405518 0
15.81347274780273 13.33889484405518 0.300000011920929
16.02259826660156 13.29340267181396 0
16.02259826660156 13.29340267181396 0.300000011920929
16.22312355041504 13.2186107635498 0
16.22312355041504 13.2186107635498 0.300000011920929
16.41096115112305 13.11604309082031 0
16.41096115112305 13.11604309082031 0.300000011920929
16.58229064941406 12.9877872467041 0
16.58229064941406 12.9877872467041 0.300000011920929
16.73362350463867 12.83645439147949 0
16.73362350463867 12.83645439147949 0.300000011920929
16.86188125610352 12.66512393951416 0
16.86188125610352 12.66512393951416 0.300000011920929
16.96444892883301 12.47728538513184 0
16.96444892883301 12.47728538513184 0.300000011920929
17.03923988342285 12.27676200866699 0
17.03923988342285 12.27676200866699 0.300000011920929
17.08473205566406 12.06763553619385 0
17.08473205566406 12.06763553619385 0.300000011920929
14.10000038146973 3.145838260650635 0.300000011920929
14.10000038146973 3.145838260650635 0
12.30000019073486 3.145838260650635 0
12.30000019073486 3.145838260650635 0.300000011920929
12.31367301940918 2.989554882049561 0
12.31367301940918 2.989554882049561 0.300000011920929
12.35427665710449 2.838020086288452 0.300000011920929
12.35427665710449 2.838020086288452 0
12.42057704925537 2.695838212966919 0.300000011920929
12.42057704925537 2.695838212966919 0
12.51056003570557 2.567329406738281 0.300000011920929
12.51056003570557 2.567329406738281 0
12.62149143218994 2.456398248672485 0.300000011920929
12.62149143218994 2.456398248672485 0
12.75 2.36641526222229 0.300000011920929
12.75 2.36641526222229 0
12.89218235015869 2.300114870071411 0.300000011920929
12.89218235015869 2.300114870071411 0
13.04371643066406 2.259511232376099 0.300000011920929
13.04371643066406 2.259511232376099 0
13.19999980926514 2.245838165283203 0.300000011920929
13.19999980926514 2.245838165283203 0
13.35628318786621 2.259511232376099 0.300000011920929
13.35628318786621 2.259511232376099 0
13.5078182220459 2.300114870071411 0.300000011920929
13.5078182220459 2.300114870071411 0
13.64999961853027 2.36641526222229 0.300000011920929
13.64999961853027 2.36641526222229 0
13.77850914001465 2.456398248672485 0.300000011920929
13.77850914001465 2.456398248672485 0
13.88944053649902 2.567329406738281 0.300000011920929
13.88944053649902 2.567329406738281 0
13.9794225692749 2.695838212966919 0.300000011920929
13.9794225692749 2.695838212966919 0
14.0457239151001 2.838020086288452 0.300000011920929
14.0457239151001 2.838020086288452 0
14.08632659912109 2.989554882049561 0.300000011920929
14.08632659912109 2.989554882049561 0
12.30000019073486 11.85416316986084 0.300000011920929
12.30000019073486 11.85416316986084 0
9.300000190734863 11.85416316986084 0
9.300000190734863 11.85416316986084 0.300000011920929
9.315267562866211 12.06763553619385 0
9.315267562866211 12.06763553619385 0.300000011920929
9.360760688781738 12.27676200866699 0
9.360760688781738 12.27676200866699 0.300000011920929
9.435551643371582 12.47728538513184 0
9.435551643371582 12.47728538513184 0.300000011920929
9.538119316101074 12.66512393951416 0
9.538119316101074 12.66512393951416 0.300000011920929
9.666376113891602 12.83645439147949 0
9.666376113891602 12.83645439147949 0.300000011920929
9.817708969116211 12.9877872467041 0
9.817708969116211 12.9877872467041 0.300000011920929
9.989038467407227 13.11604309082031 0
9.989038467407227 13.11604309082031 0.300000011920929
10.17687797546387 13.2186107635498 0
10.17687797546387 13.2186107635498 0.300000011920929
10.37740135192871 13.29340267181396 0
10.37740135192871 13.29340267181396 0.300000011920929
10.58652782440186 13.33889484405518 0
10.58652782440186 13.33889484405518 0.300000011920929
10.80000019073486 13.35416316986084 0
10.80000019073486 13.35416316986084 0.300000011920929
11.01347255706787 13.33889484405518 0
11.01347255706787 13.33889484405518 0.300000011920929
11.22259902954102 13.29340267181396 0
11.22259902954102 13.29340267181396 0.300000011920929
11.42312240600586 13.2186107635498 0
11.42312240600586 13.2186107635498 0.300000011920929
11.61096096038818 13.11604309082031 0
11.61096096038818 13.11604309082031 0.300000011920929
11.78229141235352 12.9877872467041 0
11.78229141235352 12.9877872467041 0.300000011920929
11.93362426757812 12.83645439147949 0
11.93362426757812 12.83645439147949 0.300000011920929
12.06188011169434 12.66512393951416 0
12.06188011169434 12.66512393951416 0.300000011920929
12.16444778442383 12.47728538513184 0
12.16444778442383 12.47728538513184 0.300000011920929
12.23923969268799 12.27676200866699 0
12.23923969268799 12.27676200866699 0.300000011920929
12.2847318649292 12.06763553619385 0
12.2847318649292 12.06763553619385 0.300000011920929
9.300000190734863 3.145838260650635 0.300000011920929
9.300000190734863 3.145838260650635 0
7.5 3.145838260650635 0
7.5 3.145838260650635 0.300000011920929
7.513673305511475 2.989554882049561 0
7.513673305511475 2.989554882049561 0.300000011920929
7.554276943206787 2.838020086288452 0.300000011920929
7.554276943206787 2.838020086288452 0
7.620577335357666 2.695838212966919 0.300000011920929
7.620577335357666 2.695838212966919 0
7.710560321807861 2.567329406738281 0.300000011920929
7.710560321807861 2.567329406738281 0
7.821491241455078 2.456398248672485 0.300000011920929
7.821491241455078 2.456398248672485 0
7.950000286102295 2.36641526222229 0.300000011920929
7.950000286102295 2.36641526222229 0
8.092182159423828 2.300114870071411 0.300000011920929
8.092182159423828 2.300114870071411 0
8.243717193603516 2.259511232376099 0.300000011920929
8.243717193603516 2.259511232376099 0
8.399999618530273 2.245838165283203 0.300000011920929
8.399999618530273 2.245838165283203 0
8.556282997131348 2.259511232376099 0.300000011920929
8.556282997131348 2.259511232376099 0
8.707818031311035 2.300114870071411 0.300000011920929
8.707818031311035 2.300114870071411 0
8.850000381469727 2.36641526222229 0.300000011920929
8.850000381469727 2.36641526222229 0
8.978508949279785 2.456398248672485 0.300000011920929
8.978508949279785 2.456398248672485 0
9.08944034576416 2.567329406738281 0.300000011920929
9.08944034576416 2.567329406738281 0
9.179423332214355 2.695838212966919 0.300000011920929
9.179423332214355 2.695838212966919 0
9.245723724365234 2.838020086288452 0.300000011920929
9.245723724365234 2.838020086288452 0
9.286327362060547 2.989554882049561 0.300000011920929
9.286327362060547 2.989554882049561 0
7.5 11.85416316986084 0.300000011920929
7.5 11.85416316986084 0
4.5 11.85416316986084 0
4.5 11.85416316986084 0.300000011920929
4.515267848968506 12.06763553619385 0
4.515267848968506 12.06763553619385 0.300000011920929
4.560760498046875 12.27676200866699 0
4.560760498046875 12.27676200866699 0.300000011920929
4.635551929473877 12.47728538513184 0
4.635551929473877 12.47728538513184 0.300000011920929
4.738119602203369 12.66512393951416 0
4.738119602203369 12.66512393951416 0.300000011920929
4.866375923156738 12.83645439147949 0
4.866375923156738 12.83645439147949 0.300000011920929
5.017708778381348 12.9877872467041 0
5.017708778381348 12.9877872467041 0.300000011920929
5.189038753509521 13.11604309082031 0
5.189038753509521 13.11604309082031 0.300000011920929
5.376877784729004 13.2186107635498 0
5.376877784729004 13.2186107635498 0.300000011920929
5.577401161193848 13.29340267181396 0
5.577401161193848 13.29340267181396 0.300000011920929
5.786527633666992 13.33889484405518 0
5.786527633666992 13.33889484405518 0.300000011920929
6 13.35416316986084 0
6 13.35416316986084 0.300000011920929
6.213472366333008 13.33889484405518 0
6.213472366333008 13.33889484405518 0.300000011920929
6.422598838806152 13.29340267181396 0
6.422598838806152 13.29340267181396 0.300000011920929
6.623122692108154 13.2186107635498 0
6.623122692108154 13.2186107635498 0.300000011920929
6.810961246490479 13.11604309082031 0
6.810961246490479 13.11604309082031 0.300000011920929
6.982291221618652 12.9877872467041 0
6.982291221618652 12.9877872467041 0.300000011920929
7.13362455368042 12.83645439147949 0
7.13362455368042 12.83645439147949 0.300000011920929
7.261880397796631 12.66512393951416 0
7.261880397796631 12.66512393951416 0.300000011920929
7.364448070526123 12.47728538513184 0
7.364448070526123 12.47728538513184 0.300000011920929
7.439239501953125 12.27676200866699 0
7.439239501953125 12.27676200866699 0.300000011920929
7.484732151031494 12.06763553619385 0
7.484732151031494 12.06763553619385 0.300000011920929
4.5 8.300000190734863 0.300000011920929
4.5 8.300000190734863 0
4 7.799999713897705 0
4 7.799999713897705 0.300000011920929
4.111260414123535 7.812535762786865 0
4.111260414123535 7.812535762786865 0.300000011920929
4.216941833496094 7.849515438079834 0
4.216941833496094 7.849515438079834 0.300000011920929
4.311745166778564 7.909084320068359 0
4.311745166778564 7.909084320068359 0.300000011920929
4.390915870666504 7.988255023956299 0
4.390915870666504 7.988255023956299 0.300000011920929
4.450484752655029 8.08305835723877 0
4.450484752655029 8.08305835723877 0.300000011920929
4.48746395111084 8.188739776611328 0
4.48746395111084 8.188739776611328 0.300000011920929
2.399999856948853 7.799999713897705 0.300000011920929
2.399999856948853 7.799999713897705 0
4.5 7.200000286102295 0.300000011920929
2.399999856948853 7.200000286102295 0.300000011920929
4.5 7.200000286102295 0
2.399999856948853 7.200000286102295 0
4.599999904632568 7.200000286102295 0.300000011920929
4.599999904632568 7.200000286102295 0
5.099999904632568 7.700000286102295 0
5.099999904632568 7.700000286102295 0.300000011920929
5.087463855743408 7.588739395141602 0
5.087463855743408 7.588739395141602 0.300000011920929
5.050484657287598 7.483057975769043 0
5.050484657287598 7.483057975769043 0.300000011920929
4.990915775299072 7.38825511932373 0
4.990915775299072 7.38825511932373 0.300000011920929
4.911745071411133 7.309084415435791 0
4.911745071411133 7.309084415435791 0.300000011920929
4.816941738128662 7.249515533447266 0
4.816941738128662 7.249515533447266 0.300000011920929
4.711260318756104 7.212536334991455 0
4.711260318756104 7.212536334991455 0.300000011920929
5.099999904632568 11.85416316986084 0.300000011920929
5.099999904632568 11.85416316986084 0
6.900000095367432 11.85416316986084 0
6.900000095367432 11.85416316986084 0.300000011920929
6.886327266693115 12.01044654846191 0
6.886327266693115 12.01044654846191 0.300000011920929
6.845723628997803 12.16198062896729 0.300000011920929
6.845723628997803 12.16198062896729 0
6.779422760009766 12.30416297912598 0.300000011920929
6.779422760009766 12.30416297912598 0
6.689440250396729 12.43267154693604 0.300000011920929
6.689440250396729 12.43267154693604 0
6.578508853912354 12.54360294342041 0.300000011920929
6.578508853912354 12.54360294342041 0
6.450000286102295 12.63358592987061 0.300000011920929
6.450000286102295 12.63358592987061 0
6.307818412780762 12.69988632202148 0.300000011920929
6.307818412780762 12.69988632202148 0
6.156283378601074 12.7404899597168 0.300000011920929
6.156283378601074 12.7404899597168 0
6 12.75416278839111 0.300000011920929
6 12.75416278839111 0
5.843716621398926 12.7404899597168 0.300000011920929
5.843716621398926 12.7404899597168 0
5.692182064056396 12.69988632202148 0.300000011920929
5.692182064056396 12.69988632202148 0
5.550000190734863 12.63358592987061 0.300000011920929
5.550000190734863 12.63358592987061 0
5.421491146087646 12.54360294342041 0.300000011920929
5.421491146087646 12.54360294342041 0
5.31056022644043 12.43267154693604 0.300000011920929
5.31056022644043 12.43267154693604 0
5.220577239990234 12.30416297912598 0.300000011920929
5.220577239990234 12.30416297912598 0
5.154276847839355 12.16198062896729 0.300000011920929
5.154276847839355 12.16198062896729 0
5.113673210144043 12.01044654846191 0.300000011920929
5.113673210144043 12.01044654846191 0
6.900000095367432 3.145838260650635 0.300000011920929
6.900000095367432 3.145838260650635 0
9.899999618530273 3.145838260650635 0
9.899999618530273 3.145838260650635 0.300000011920929
9.884732246398926 2.932365894317627 0
9.884732246398926 2.932365894317627 0.300000011920929
9.839239120483398 2.723239421844482 0
9.839239120483398 2.723239421844482 0.300000011920929
9.764448165893555 2.52271556854248 0
9.764448165893555 2.52271556854248 0.300000011920929
9.661880493164062 2.334877014160156 0
9.661880493164062 2.334877014160156 0.300000011920929
9.533624649047852 2.163547039031982 0
9.533624649047852 2.163547039031982 0.300000011920929
9.382290840148926 2.012213706970215 0
9.382290840148926 2.012213706970215 0.300000011920929
9.21096134185791 1.883957862854004 0
9.21096134185791 1.883957862854004 0.300000011920929
9.023122787475586 1.781390190124512 0
9.023122787475586 1.781390190124512 0.300000011920929
8.822598457336426 1.70659875869751 0
8.822598457336426 1.70659875869751 0.300000011920929
8.613471984863281 1.661105990409851 0
8.613471984863281 1.661105990409851 0.300000011920929
8.399999618530273 1.645838141441345 0
8.399999618530273 1.645838141441345 0.300000011920929
8.186528205871582 1.661105990409851 0
8.186528205871582 1.661105990409851 0.300000011920929
7.977401256561279 1.70659875869751 0
7.977401256561279 1.70659875869751 0.300000011920929
7.776877403259277 1.781390190124512 0
7.776877403259277 1.781390190124512 0.300000011920929
7.589038848876953 1.883957862854004 0
7.589038848876953 1.883957862854004 0.300000011920929
7.417708873748779 2.012213706970215 0
7.417708873748779 2.012213706970215 0.300000011920929
7.266375541687012 2.163547039031982 0
7.266375541687012 2.163547039031982 0.300000011920929
7.138119697570801 2.334877014160156 0
7.138119697570801 2.334877014160156 0.300000011920929
7.035552024841309 2.52271556854248 0
7.035552024841309 2.52271556854248 0.300000011920929
6.960760593414307 2.723239421844482 0
6.960760593414307 2.723239421844482 0.300000011920929
6.915267944335938 2.932365894317627 0
6.915267944335938 2.932365894317627 0.300000011920929
9.899999618530273 11.85416316986084 0.300000011920929
9.899999618530273 11.85416316986084 0
11.69999980926514 11.85416316986084 0
11.69999980926514 11.85416316986084 0.300000011920929
11.68632698059082 12.01044654846191 0
11.68632698059082 12.01044654846191 0.300000011920929
11.64572334289551 12.16198062896729 0.300000011920929
11.64572334289551 12.16198062896729 0
11.57942295074463 12.30416297912598 0.300000011920929
11.57942295074463 12.30416297912598 0
11.48943996429443 12.43267154693604 0.300000011920929
11.48943996429443 12.43267154693604 0
11.37850856781006 12.54360294342041 0.300000011920929
11.37850856781006 12.54360294342041 0
11.25 12.63358592987061 0.300000011920929
11.25 12.63358592987061 0
11.10781860351562 12.69988632202148 0.300000011920929
11.10781860351562 12.69988632202148 0
10.95628356933594 12.7404899597168 0.300000011920929
10.95628356933594 12.7404899597168 0
10.80000019073486 12.75416278839111 0.300000011920929
10.80000019073486 12.75416278839111 0
10.64371681213379 12.7404899597168 0.300000011920929
10.64371681213379 12.7404899597168 0
10.4921817779541 12.69988632202148 0.300000011920929
10.4921817779541 12.69988632202148 0
10.35000038146973 12.63358592987061 0.300000011920929
10.35000038146973 12.63358592987061 0
10.22149085998535 12.54360294342041 0.300000011920929
10.22149085998535 12.54360294342041 0
10.11056041717529 12.43267154693604 0.300000011920929
10.11056041717529 12.43267154693604 0
10.0205774307251 12.30416297912598 0.300000011920929
10.0205774307251 12.30416297912598 0
9.954277038574219 12.16198062896729 0.300000011920929
9.954277038574219 12.16198062896729 0
9.913673400878906 12.01044654846191 0.300000011920929
9.913673400878906 12.01044654846191 0
11.69999980926514 3.145838260650635 0.300000011920929
11.69999980926514 3.145838260650635 0
14.69999980926514 3.145838260650635 0
14.69999980926514 3.145838260650635 0.300000011920929
14.68473243713379 2.932365894317627 0
14.68473243713379 2.932365894317627 0.300000011920929
14.63923931121826 2.723239421844482 0
14.63923931121826 2.723239421844482 0.300000011920929
14.56444835662842 2.52271556854248 0
14.56444835662842 2.52271556854248 0.300000011920929
14.46188068389893 2.334877014160156 0
14.46188068389893 2.334877014160156 0.300000011920929
14.33362483978271 2.163547039031982 0
14.33362483978271 2.163547039031982 0.300000011920929
14.18229103088379 2.012213706970215 0
14.18229103088379 2.012213706970215 0.300000011920929
14.01096153259277 1.883957862854004 0
14.01096153259277 1.883957862854004 0.300000011920929
13.82312297821045 1.781390190124512 0
13.82312297821045 1.781390190124512 0.300000011920929
13.62259864807129 1.70659875869751 0
13.62259864807129 1.70659875869751 0.300000011920929
13.41347217559814 1.661105990409851 0
13.41347217559814 1.661105990409851 0.300000011920929
13.19999980926514 1.645838141441345 0
13.19999980926514 1.645838141441345 0.300000011920929
12.98652744293213 1.661105990409851 0
12.98652744293213 1.661105990409851 0.300000011920929
12.77740097045898 1.70659875869751 0
12.77740097045898 1.70659875869751 0.300000011920929
12.57687759399414 1.781390190124512 0
12.57687759399414 1.781390190124512 0.300000011920929
12.38903903961182 1.883957862854004 0
12.38903903961182 1.883957862854004 0.300000011920929
12.21770858764648 2.012213706970215 0
12.21770858764648 2.012213706970215 0.300000011920929
12.06637573242188 2.163547039031982 0
12.06637573242188 2.163547039031982 0.300000011920929
11.93811988830566 2.334877014160156 0
11.93811988830566 2.334877014160156 0.300000011920929
11.83555221557617 2.52271556854248 0
11.83555221557617 2.52271556854248 0.300000011920929
11.76076030731201 2.723239421844482 0
11.76076030731201 2.723239421844482 0.300000011920929
11.7152681350708 2.932365894317627 0
11.7152681350708 2.932365894317627 0.300000011920929
14.69999980926514 11.85416316986084 0.300000011920929
14.69999980926514 11.85416316986084 0
16.5 11.85416316986084 0
16.5 11.85416316986084 0.300000011920929
16.48632621765137 12.01044654846191 0
16.48632621765137 12.01044654846191 0.300000011920929
16.44572257995605 12.16198062896729 0.300000011920929
16.44572257995605 12.16198062896729 0
16.37942314147949 12.30416297912598 0.300000011920929
16.37942314147949 12.30416297912598 0
16.2894401550293 12.43267154693604 0.300000011920929
16.2894401550293 12.43267154693604 0
16.17850875854492 12.54360294342041 0.300000011920929
16.17850875854492 12.54360294342041 0
16.04999923706055 12.63358592987061 0.300000011920929
16.04999923706055 12.63358592987061 0
15.90781784057617 12.69988632202148 0.300000011920929
15.90781784057617 12.69988632202148 0
15.7562837600708 12.7404899597168 0.300000011920929
15.7562837600708 12.7404899597168 0
15.60000038146973 12.75416278839111 0.300000011920929
15.60000038146973 12.75416278839111 0
15.44371700286865 12.7404899597168 0.300000011920929
15.44371700286865 12.7404899597168 0
15.29218196868896 12.69988632202148 0.300000011920929
15.29218196868896 12.69988632202148 0
15.14999961853027 12.63358592987061 0.300000011920929
15.14999961853027 12.63358592987061 0
15.02149105072021 12.54360294342041 0.300000011920929
15.02149105072021 12.54360294342041 0
14.91055965423584 12.43267154693604 0.300000011920929
14.91055965423584 12.43267154693604 0
14.82057762145996 12.30416297912598 0.300000011920929
14.82057762145996 12.30416297912598 0
14.75427627563477 12.16198062896729 0.300000011920929
14.75427627563477 12.16198062896729 0
14.71367263793945 12.01044654846191 0.300000011920929
14.71367263793945 12.01044654846191 0
16.5 3.145838260650635 0.300000011920929
16.5 3.145838260650635 0
19.5 3.145838260650635 0
19.5 3.145838260650635 0.300000011920929
19.48473167419434 2.932365894317627 0
19.48473167419434 2.932365894317627 0.300000011920929
19.43923950195312 2.723239421844482 0
19.43923950195312 2.723239421844482 0.300000011920929
19.36444854736328 2.52271556854248 0
19.36444854736328 2.52271556854248 0.300000011920929
19.26188087463379 2.334877014160156 0
19.26188087463379 2.334877014160156 0.300000011920929
19.13362503051758 2.163547039031982 0
19.13362503051758 2.163547039031982 0.300000011920929
18.98229026794434 2.012213706970215 0
18.98229026794434 2.012213706970215 0.300000011920929
18.81096076965332 1.883957862854004 0
18.81096076965332 1.883957862854004 0.300000011920929
18.62312316894531 1.781390190124512 0
18.62312316894531 1.781390190124512 0.300000011920929
18.42259979248047 1.70659875869751 0
18.42259979248047 1.70659875869751 0.300000011920929
18.21347236633301 1.661105990409851 0
18.21347236633301 1.661105990409851 0.300000011920929
18 1.645838141441345 0
18 1.645838141441345 0.300000011920929
17.78652763366699 1.661105990409851 0
17.78652763366699 1.661105990409851 0.300000011920929
17.57740211486816 1.70659875869751 0
17.57740211486816 1.70659875869751 0.300000011920929
17.37687683105469 1.781390190124512 0
17.37687683105469 1.781390190124512 0.300000011920929
17.18903923034668 1.883957862854004 0
17.18903923034668 1.883957862854004 0.300000011920929
17.01770973205566 2.012213706970215 0
17.01770973205566 2.012213706970215 0.300000011920929
16.86637496948242 2.163547039031982 0
16.86637496948242 2.163547039031982 0.300000011920929
16.73811912536621 2.334877014160156 0
16.73811912536621 2.334877014160156 0.300000011920929
16.63555145263672 2.52271556854248 0
16.63555145263672 2.52271556854248 0.300000011920929
16.56076049804688 2.723239421844482 0
16.56076049804688 2.723239421844482 0.300000011920929
16.51526832580566 2.932365894317627 0
16.51526832580566 2.932365894317627 0.300000011920929
19.5 6.700000286102295 0.300000011920929
19.5 6.700000286102295 0
20 7.200000286102295 0
20 7.200000286102295 0.300000011920929
19.88874053955078 7.187464237213135 0
19.88874053955078 7.187464237213135 0.300000011920929
19.78305816650391 7.150484561920166 0
19.78305816650391 7.150484561920166 0.300000011920929
19.68825531005859 7.090915679931641 0
19.68825531005859 7.090915679931641 0.300000011920929
19.60908508300781 7.011744976043701 0
19.60908508300781 7.011744976043701 0.300000011920929
19.54951477050781 6.916942119598389 0
19.54951477050781 6.916942119598389 0.300000011920929
19.51253700256348 6.81126070022583 0
19.51253700256348 6.81126070022583 0.300000011920929
21.59999847412109 7.200000286102295 0.300000011920929
21.59999847412109 7.200000286102295 0
21.54530906677246 7.292018890380859 0.300000011920929
21.5114574432373 7.393570423126221 0.300000011920929
21.5 7.5 0.300000011920929
21.5114574432373 7.606429576873779 0.300000011920929
21.54530906677246 7.707981109619141 0.300000011920929
2.4885413646698 7.393570423126221 0.300000011920929
2.454690933227539 7.292018890380859 0.300000011920929
2.454690933227539 7.707981109619141 0.300000011920929
2.4885413646698 7.606429576873779 0.300000011920929
2.5 7.5 0.300000011920929
21.68196868896484 7.885819435119629 0
21.6257438659668 7.831561088562012 2
21.55727195739746 7.732361316680908 2
21.51452827453613 7.619657516479492 2
21.5 7.5 2
21.51452827453613 7.38034200668335 2
21.55727195739746 7.267638206481934 2
21.6257438659668 7.16843843460083 2
21.68196868896484 7.114180564880371 0
21.71596717834473 7.088508129119873 2
21.78185653686523 7.050096035003662 0
21.82269668579102 7.032491683959961 2
21.8940315246582 7.011358261108398 0
21.93973159790039 7.003645420074463 2
22.01217651367188 7.000148296356201 0
22.06026840209961 7.003645420074463 2
22.12963676452637 7.017097949981689 0
22.17730140686035 7.032491683959961 2
22.23979377746582 7.061253070831299 0
22.28403282165527 7.088508129119873 2
22.33644104003906 7.130125045776367 0
22.37425422668457 7.16843843460083 2
22.41413497924805 7.219834804534912 0
22.44272804260254 7.267638206481934 2
22.46849632263184 7.32532787322998 0
22.48546981811523 7.38034200668335 2
22.4964656829834 7.440661430358887 0
22.5 7.5 2
22.4964656829834 7.559337615966797 0
22.48546981811523 7.619657516479492 2
22.46849632263184 7.674671173095703 0
22.44272804260254 7.732361316680908 2
22.41413497924805 7.78016471862793 0
22.37425422668457 7.831561088562012 2
22.33644104003906 7.869874000549316 0
22.28403282165527 7.911491870880127 2
22.23979377746582 7.938746452331543 0
22.17730140686035 7.967507839202881 2
22.12963676452637 7.982901573181152 0
22.06026840209961 7.996354103088379 2
22.01217842102051 7.999851703643799 0
21.93973159790039 7.996354103088379 2
21.8940315246582 7.988641738891602 0
21.82269668579102 7.967507839202881 2
21.78185653686523 7.94990348815918 0
21.71596717834473 7.911491870880127 2
2.318030118942261 7.114180564880371 0
2.374255418777466 7.16843843460083 2
2.442728042602539 7.267638206481934 2
2.48547101020813 7.38034200668335 2
2.5 7.5 2
2.48547101020813 7.61965799331665 2
2.442728042602539 7.732361793518066 2
2.374255418777466 7.83156156539917 2
2.318030118942261 7.885819435119629 0
2.284032344818115 7.911491870880127 2
2.218143701553345 7.94990348815918 0
2.177302360534668 7.967508316040039 2
2.10596776008606 7.988641738891602 0
2.060268402099609 7.996354579925537 2
1.987821936607361 7.999851703643799 0
1.93973171710968 7.996354579925537 2
1.870362162590027 7.982901573181152 0
1.822697520256042 7.967508316040039 2
1.760205745697021 7.938746929168701 0
1.715967655181885 7.911491870880127 2
1.663558483123779 7.869874477386475 0
1.625744581222534 7.83156156539917 2
1.585865139961243 7.78016471862793 0
1.557271957397461 7.732361793518066 2
1.531502604484558 7.674671649932861 0
1.51452910900116 7.61965799331665 2
1.503533482551575 7.559338092803955 0
1.5 7.5 2
1.503533482551575 7.440661907196045 0
1.51452910900116 7.38034200668335 2
1.531502604484558 7.325328350067139 0
1.557271957397461 7.267638206481934 2
1.585865139961243 7.21983528137207 0
1.625744581222534 7.16843843460083 2
1.663558483123779 7.130125522613525 0
1.715967655181885 7.088508129119873 2
1.760205745697021 7.061253070831299 0
1.822697520256042 7.032491683959961 2
1.870362162590027 7.017098426818848 0
1.93973171710968 7.003645420074463 2
1.987821936607361 7.000148296356201 0
2.060268402099609 7.003645420074463 2
2.10596776008606 7.011358261108398 0
2.177302360534668 7.032491683959961 2
2.218143701553345 7.05009651184082 0
2.284032344818115 7.088508129119873 2
$EndNodes
$Elements
1 1308 1 1356
2 1 2 1308
1 1 2 3 
2 3 2 6 
3 7 8 9 
4 9 8 12 
5 9 12 15 
6 15 12 18 
7 15 18 21 
8 21 18 24 
9 21 24 27 
10 27 24 30 
11 27 30 33 
12 33 30 36 
13 33 36 39 
14 39 36 42 
15 39 42 3 
16 3 42 1 
17 49 8 51 
18 51 8 7 
19 55 56 57 
20 57 56 60 
21 57 60 63 
22 57 63 66 
23 66 63 69 
24 66 69 72 
25 72 69 75 
26 72 75 78 
27 78 75 81 
28 78 81 84 
29 84 81 87 
30 84 87 90 
31 90 87 93 
32 90 93 96 
33 96 93 99 
34 96 99 102 
35 102 99 105 
36 102 105 108 
37 108 105 111 
38 108 111 114 
39 114 111 117 
40 114 117 120 
41 120 117 123 
42 120 123 126 
43 126 123 129 
44 126 129 132 
45 132 129 135 
46 132 135 138 
47 138 135 141 
48 138 141 144 
49 144 141 147 
50 144 147 150 
51 150 147 153 
52 150 153 156 
53 156 153 51 
54 51 153 49 
55 163 56 165 
56 165 56 55 
57 169 170 171 
58 171 170 174 
59 171 174 177 
60 177 174 180 
61 177 180 183 
62 183 180 186 
63 183 186 189 
64 189 186 192 
65 189 192 195 
66 195 192 198 
67 195 198 201 
68 201 198 204 
69 201 204 207 
70 207 204 210 
71 207 210 213 
72 213 210 216 
73 213 216 219 
74 219 216 222 
75 219 222 225 
76 225 222 228 
77 225 228 231 
78 231 228 234 
79 231 234 237 
80 237 234 240 
81 237 240 243 
82 243 240 246 
83 243 246 249 
84 249 246 252 
85 249 252 255 
86 255 252 258 
87 255 258 261 
88 261 258 264 
89 261 264 267 
90 267 264 270 
91 267 270 273 
92 273 270 276 
93 273 276 279 
94 279 276 282 
95 279 282 285 
96 285 282 288 
97 285 288 291 
98 291 288 294 
99 291 294 165 
100 165 294 163 
101 301 170 303 
102 303 170 169 
103 307 308 309 
104 309 308 312 
105 309 312 315 
106 309 315 318 
107 318 315 321 
108 318 321 324 
109 324 321 327 
110 324 327 330 
111 330 327 333 
112 330 333 336 
113 336 333 339 
114 336 339 342 
115 342 339 345 
116 342 345 348 
117 348 345 351 
118 348 351 354 
119 354 351 357 
120 354 357 360 
121 360 357 363 
122 360 363 366 
123 366 363 369 
124 366 369 372 
125 372 369 375 
126 372 375 378 
127 378 375 381 
128 378 381 384 
129 384 381 387 
130 384 387 390 
131 390 387 393 
132 390 393 396 
133 396 393 399 
134 396 399 402 
135 402 399 405 
136 402 405 408 
137 408 405 303 
138 303 405 301 
139 415 308 417 
140 417 308 307 
141 421 422 423 
142 423 422 426 
143 423 426 429 
144 429 426 432 
145 429 432 435 
146 435 432 438 
147 435 438 441 
148 441 438 444 
149 441 444 447 
150 447 444 450 
151 447 450 453 
152 453 450 456 
153 453 456 459 
154 459 456 462 
155 459 462 465 
156 465 462 468 
157 465 468 471 
158 471 468 474 
159 471 474 477 
160 477 474 480 
161 477 480 483 
162 483 480 486 
163 483 486 489 
164 489 486 492 
165 489 492 495 
166 495 492 498 
167 495 498 501 
168 501 498 504 
169 501 504 507 
170 507 504 510 
171 507 510 513 
172 513 510 516 
173 513 516 519 
174 519 516 522 
175 519 522 525 
176 525 522 528 
177 525 528 531 
178 531 528 534 
179 531 534 537 
180 537 534 540 
181 537 540 543 
182 543 540 546 
183 543 546 417 
184 417 546 415 
185 553 422 555 
186 555 422 421 
187 559 560 561 
188 561 560 564 
189 561 564 567 
190 561 567 570 
191 570 567 573 
192 570 573 576 
193 576 573 579 
194 576 579 582 
195 582 579 585 
196 582 585 588 
197 588 585 591 
198 588 591 594 
199 594 591 597 
200 594 597 600 
201 600 597 603 
202 600 603 606 
203 606 603 609 
204 606 609 612 
205 612 609 615 
206 612 615 618 
207 618 615 621 
208 618 621 624 
209 624 621 627 
210 624 627 630 
211 630 627 633 
212 630 633 636 
213 636 633 639 
214 636 639 642 
215 642 639 645 
216 642 645 648 
217 648 645 651 
218 648 651 654 
219 654 651 657 
220 654 657 660 
221 660 657 555 
222 555 657 553 
223 667 560 669 
224 669 560 559 
225 673 674 675 
226 675 674 678 
227 675 678 681 
228 681 678 684 
229 681 684 687 
230 687 684 690 
231 687 690 693 
232 693 690 696 
233 693 696 699 
234 699 696 702 
235 699 702 705 
236 705 702 708 
237 705 708 711 
238 711 708 714 
239 711 714 717 
240 717 714 720 
241 717 720 723 
242 723 720 726 
243 723 726 729 
244 729 726 732 
245 729 732 735 
246 735 732 738 
247 735 738 741 
248 741 738 744 
249 741 744 747 
250 747 744 750 
251 747 750 753 
252 753 750 756 
253 753 756 759 
254 759 756 762 
255 759 762 765 
256 765 762 768 
257 765 768 771 
258 771 768 774 
259 771 774 777 
260 777 774 780 
261 777 780 783 
262 783 780 786 
263 783 786 789 
264 789 786 792 
265 789 792 795 
266 795 792 798 
267 795 798 669 
268 669 798 667 
269 805 674 807 
270 807 674 673 
271 811 812 813 
272 813 812 816 
273 813 816 819 
274 819 816 822 
275 819 822 825 
276 825 822 828 
277 825 828 831 
278 831 828 834 
279 831 834 837 
280 837 834 840 
281 837 840 843 
282 843 840 846 
283 843 846 807 
284 807 846 805 
285 853 812 855 
286 855 812 811 
287 859 860 861 
288 861 860 864 
289 865 859 867 
290 867 859 861 
291 871 872 873 
292 873 872 876 
293 873 876 879 
294 879 876 882 
295 879 882 885 
296 885 882 888 
297 885 888 891 
298 891 888 894 
299 891 894 897 
300 897 894 900 
301 897 900 903 
302 903 900 906 
303 903 906 867 
304 867 906 865 
305 913 872 915 
306 915 872 871 
307 919 920 921 
308 921 920 924 
309 921 924 927 
310 921 927 930 
311 930 927 933 
312 930 933 936 
313 936 933 939 
314 936 939 942 
315 942 939 945 
316 942 945 948 
317 948 945 951 
318 948 951 954 
319 954 951 957 
320 954 957 960 
321 960 957 963 
322 960 963 966 
323 966 963 969 
324 966 969 972 
325 972 969 975 
326 972 975 978 
327 978 975 981 
328 978 981 984 
329 984 981 987 
330 984 987 990 
331 990 987 993 
332 990 993 996 
333 996 993 999 
334 996 999 1002 
335 1002 999 1005 
336 1002 1005 1008 
337 1008 1005 1011 
338 1008 1011 1014 
339 1014 1011 1017 
340 1014 1017 1020 
341 1020 1017 915 
342 915 1017 913 
343 1027 920 1029 
344 1029 920 919 
345 1033 1034 1035 
346 1035 1034 1038 
347 1035 1038 1041 
348 1041 1038 1044 
349 1041 1044 1047 
350 1047 1044 1050 
351 1047 1050 1053 
352 1053 1050 1056 
353 1053 1056 1059 
354 1059 1056 1062 
355 1059 1062 1065 
356 1065 1062 1068 
357 1065 1068 1071 
358 1071 1068 1074 
359 1071 1074 1077 
360 1077 1074 1080 
361 1077 1080 1083 
362 1083 1080 1086 
363 1083 1086 1089 
364 1089 1086 1092 
365 1089 1092 1095 
366 1095 1092 1098 
367 1095 1098 1101 
368 1101 1098 1104 
369 1101 1104 1107 
370 1107 1104 1110 
371 1107 1110 1113 
372 1113 1110 1116 
373 1113 1116 1119 
374 1119 1116 1122 
375 1119 1122 1125 
376 1125 1122 1128 
377 1125 1128 1131 
378 1131 1128 1134 
379 1131 1134 1137 
380 1137 1134 1140 
381 1137 1140 1143 
382 1143 1140 1146 
383 1143 1146 1149 
384 1149 1146 1152 
385 1149 1152 1155 
386 1155 1152 1158 
387 1155 1158 1029 
388 1029 1158 1027 
389 1165 1034 1167 
390 1167 1034 1033 
391 1171 1172 1173 
392 1173 1172 1176 
393 1173 1176 1179 
394 1173 1179 1182 
395 1182 1179 1185 
396 1182 1185 1188 
397 1188 1185 1191 
398 1188 1191 1194 
399 1194 1191 1197 
400 1194 1197 1200 
401 1200 1197 1203 
402 1200 1203 1206 
403 1206 1203 1209 
404 1206 1209 1212 
405 1212 1209 1215 
406 1212 1215 1218 
407 1218 1215 1221 
408 1218 1221 1224 
409 1224 1221 1227 
410 1224 1227 1230 
411 1230 1227 1233 
412 1230 1233 1236 
413 1236 1233 1239 
414 1236 1239 1242 
415 1242 1239 1245 
416 1242 1245 1248 
417 1248 1245 1251 
418 1248 1251 1254 
419 1254 1251 1257 
420 1254 1257 1260 
421 1260 1257 1263 
422 1260 1263 1266 
423 1266 1263 1269 
424 1266 1269 1272 
425 1272 1269 1167 
426 1167 1269 1165 
427 1279 1172 1281 
428 1281 1172 1171 
429 1285 1286 1287 
430 1287 1286 1290 
431 1287 1290 1293 
432 1293 1290 1296 
433 1293 1296 1299 
434 1299 1296 1302 
435 1299 1302 1305 
436 1305 1302 1308 
437 1305 1308 1311 
438 1311 1308 1314 
439 1311 1314 1317 
440 1317 1314 1320 
441 1317 1320 1323 
442 1323 1320 1326 
443 1323 1326 1329 
444 1329 1326 1332 
445 1329 1332 1335 
446 1335 1332 1338 
447 1335 1338 1341 
448 1341 1338 1344 
449 1341 1344 1347 
450 1347 1344 1350 
451 1347 1350 1353 
452 1353 1350 1356 
453 1353 1356 1359 
454 1359 1356 1362 
455 1359 1362 1365 
456 1365 1362 1368 
457 1365 1368 1371 
458 1371 1368 1374 
459 1371 1374 1377 
460 1377 1374 1380 
461 1377 1380 1383 
462 1383 1380 1386 
463 1383 1386 1389 
464 1389 1386 1392 
465 1389 1392 1395 
466 1395 1392 1398 
467 1395 1398 1401 
468 1401 1398 1404 
469 1401 1404 1407 
470 1407 1404 1410 
471 1407 1410 1281 
472 1281 1410 1279 
473 1417 1286 1419 
474 1419 1286 1285 
475 1423 1424 1425 
476 1425 1424 1428 
477 1425 1428 1431 
478 1425 1431 1434 
479 1434 1431 1437 
480 1434 1437 1440 
481 1440 1437 1443 
482 1440 1443 1446 
483 1446 1443 1449 
484 1446 1449 1452 
485 1452 1449 1455 
486 1452 1455 1458 
487 1458 1455 1461 
488 1458 1461 1464 
489 1464 1461 1467 
490 1464 1467 1470 
491 1470 1467 1473 
492 1470 1473 1476 
493 1476 1473 1479 
494 1476 1479 1482 
495 1482 1479 1485 
496 1482 1485 1488 
497 1488 1485 1491 
498 1488 1491 1494 
499 1494 1491 1497 
500 1494 1497 1500 
501 1500 1497 1503 
502 1500 1503 1506 
503 1506 1503 1509 
504 1506 1509 1512 
505 1512 1509 1515 
506 1512 1515 1518 
507 1518 1515 1521 
508 1518 1521 1524 
509 1524 1521 1419 
510 1419 1521 1417 
511 1531 1424 1533 
512 1533 1424 1423 
513 1537 1538 1539 
514 1539 1538 1542 
515 1539 1542 1545 
516 1545 1542 1548 
517 1545 1548 1551 
518 1551 1548 1554 
519 1551 1554 1557 
520 1557 1554 1560 
521 1557 1560 1563 
522 1563 1560 1566 
523 1563 1566 1569 
524 1569 1566 1572 
525 1569 1572 1575 
526 1575 1572 1578 
527 1575 1578 1581 
528 1581 1578 1584 
529 1581 1584 1587 
530 1587 1584 1590 
531 1587 1590 1593 
532 1593 1590 1596 
533 1593 1596 1599 
534 1599 1596 1602 
535 1599 1602 1605 
536 1605 1602 1608 
537 1605 1608 1611 
538 1611 1608 1614 
539 1611 1614 1617 
540 1617 1614 1620 
541 1617 1620 1623 
542 1623 1620 1626 
543 1623 1626 1629 
544 1629 1626 1632 
545 1629 1632 1635 
546 1635 1632 1638 
547 1635 1638 1641 
548 1641 1638 1644 
549 1641 1644 1647 
550 1647 1644 1650 
551 1647 1650 1653 
552 1653 1650 1656 
553 1653 1656 1659 
554 1659 1656 1662 
555 1659 1662 1533 
556 1533 1662 1531 
557 1669 1538 1671 
558 1671 1538 1537 
559 1675 1676 1677 
560 1677 1676 1680 
561 1677 1680 1683 
562 1683 1680 1686 
563 1683 1686 1689 
564 1689 1686 1692 
565 1689 1692 1695 
566 1695 1692 1698 
567 1695 1698 1701 
568 1701 1698 1704 
569 1701 1704 1707 
570 1707 1704 1710 
571 1707 1710 1671 
572 1671 1710 1669 
573 1717 1676 1719 
574 1719 1676 1675 
575 1717 1724 1676 
576 1676 1724 1728 
577 1676 1728 1731 
578 1731 1733 1676 
579 1676 1733 1 
580 1676 1 1680 
581 1680 1 1686 
582 1686 1 24 
583 1686 24 18 
584 1733 1751 1 
585 1 1751 2 
586 42 36 1 
587 1 36 30 
588 1 30 24 
589 18 12 1686 
590 1686 12 8 
591 1686 8 1692 
592 1692 8 1698 
593 1698 8 1704 
594 1704 8 1710 
595 1710 8 1669 
596 1669 8 49 
597 1669 49 1538 
598 1538 49 153 
599 1538 153 1542 
600 1542 153 147 
601 1542 147 1548 
602 1548 147 141 
603 1548 141 1554 
604 1554 141 135 
605 1554 135 1560 
606 1560 135 129 
607 1560 129 1566 
608 1566 129 123 
609 1566 123 1572 
610 1572 123 117 
611 1572 117 1578 
612 1578 117 1584 
613 1584 117 111 
614 1584 111 1590 
615 1590 111 1596 
616 1596 111 105 
617 1596 105 1602 
618 1602 105 1608 
619 1608 105 99 
620 1608 99 1614 
621 1614 99 1620 
622 1620 99 93 
623 1620 93 1626 
624 1626 93 1632 
625 1632 93 87 
626 1632 87 1638 
627 1638 87 81 
628 1638 81 1644 
629 1644 81 75 
630 1644 75 1650 
631 1650 75 69 
632 1650 69 1656 
633 1656 69 63 
634 1656 63 1662 
635 1662 63 60 
636 1662 60 1531 
637 1531 60 56 
638 1531 56 1424 
639 1424 56 163 
640 1424 163 1428 
641 1428 163 294 
642 1428 294 1431 
643 1431 294 288 
644 1431 288 1437 
645 1437 288 282 
646 1437 282 1443 
647 1443 282 276 
648 1443 276 1449 
649 1449 276 270 
650 1449 270 1455 
651 1455 270 264 
652 1455 264 1461 
653 1461 264 258 
654 1461 258 252 
655 1461 252 1467 
656 1467 252 246 
657 1467 246 240 
658 1467 240 1473 
659 1473 240 234 
660 1473 234 228 
661 1473 228 1479 
662 1479 228 222 
663 1479 222 216 
664 1479 216 1485 
665 1485 216 210 
666 1485 210 204 
667 1485 204 1491 
668 1491 204 198 
669 1491 198 1497 
670 1497 198 192 
671 1497 192 1503 
672 1503 192 186 
673 1503 186 1509 
674 1509 186 180 
675 1509 180 1515 
676 1515 180 174 
677 1515 174 1521 
678 1521 174 170 
679 1521 170 1417 
680 1417 170 1286 
681 1286 170 301 
682 1286 301 405 
683 1286 405 1290 
684 1290 405 399 
685 1290 399 1296 
686 1296 399 393 
687 1296 393 1302 
688 1302 393 387 
689 1302 387 1308 
690 1308 387 381 
691 1308 381 1314 
692 1314 381 375 
693 1314 375 1320 
694 1320 375 369 
695 1320 369 1326 
696 1326 369 1332 
697 1332 369 363 
698 1332 363 1338 
699 1338 363 1344 
700 1344 363 357 
701 1344 357 1350 
702 1350 357 1356 
703 1356 357 351 
704 1356 351 1362 
705 1362 351 1368 
706 1368 351 345 
707 1368 345 1374 
708 1374 345 1380 
709 1380 345 339 
710 1380 339 1386 
711 1386 339 333 
712 1386 333 1392 
713 1392 333 327 
714 1392 327 1398 
715 1398 327 321 
716 1398 321 1404 
717 1404 321 315 
718 1404 315 1410 
719 1410 315 312 
720 1410 312 1279 
721 1279 312 308 
722 1279 308 1172 
723 1172 308 415 
724 1172 415 1176 
725 1176 415 546 
726 1176 546 1179 
727 1179 546 540 
728 1179 540 1185 
729 1185 540 534 
730 1185 534 1191 
731 1191 534 528 
732 1191 528 1197 
733 1197 528 522 
734 1197 522 1203 
735 1203 522 516 
736 1203 516 1209 
737 1209 516 510 
738 1209 510 504 
739 1209 504 1215 
740 1215 504 498 
741 1215 498 492 
742 1215 492 1221 
743 1221 492 486 
744 1221 486 480 
745 1221 480 1227 
746 1227 480 474 
747 1227 474 468 
748 1227 468 1233 
749 1233 468 462 
750 1233 462 456 
751 1233 456 1239 
752 1239 456 450 
753 1239 450 1245 
754 1245 450 444 
755 1245 444 1251 
756 1251 444 438 
757 1251 438 1257 
758 1257 438 432 
759 1257 432 1263 
760 1263 432 426 
761 1263 426 1269 
762 1269 426 422 
763 1269 422 1165 
764 1165 422 1034 
765 1034 422 553 
766 1034 553 657 
767 1034 657 1038 
768 1038 657 651 
769 1038 651 1044 
770 1044 651 645 
771 1044 645 1050 
772 1050 645 639 
773 1050 639 1056 
774 1056 639 633 
775 1056 633 1062 
776 1062 633 627 
777 1062 627 1068 
778 1068 627 621 
779 1068 621 1074 
780 1074 621 1080 
781 1080 621 615 
782 1080 615 1086 
783 1086 615 1092 
784 1092 615 609 
785 1092 609 1098 
786 1098 609 1104 
787 1104 609 603 
788 1104 603 1110 
789 1110 603 1116 
790 1116 603 597 
791 1116 597 1122 
792 1122 597 1128 
793 1128 597 591 
794 1128 591 1134 
795 1134 591 585 
796 1134 585 1140 
797 1140 585 579 
798 1140 579 1146 
799 1146 579 573 
800 1146 573 1152 
801 1152 573 567 
802 1152 567 1158 
803 1158 567 564 
804 1158 564 1027 
805 1027 564 560 
806 1027 560 920 
807 920 560 667 
808 920 667 924 
809 924 667 798 
810 924 798 927 
811 927 798 792 
812 927 792 933 
813 933 792 786 
814 933 786 939 
815 939 786 780 
816 939 780 945 
817 945 780 774 
818 945 774 951 
819 951 774 768 
820 951 768 957 
821 957 768 762 
822 957 762 756 
823 957 756 963 
824 963 756 750 
825 963 750 744 
826 963 744 969 
827 969 744 738 
828 969 738 732 
829 969 732 975 
830 975 732 726 
831 975 726 720 
832 975 720 981 
833 981 720 714 
834 981 714 708 
835 981 708 987 
836 987 708 702 
837 987 702 993 
838 993 702 696 
839 993 696 999 
840 999 696 690 
841 999 690 1005 
842 1005 690 684 
843 1005 684 1011 
844 1011 684 678 
845 1011 678 1017 
846 1017 678 674 
847 1017 674 913 
848 913 674 805 
849 913 805 872 
850 872 805 846 
851 872 846 840 
852 840 834 872 
853 872 834 828 
854 872 828 822 
855 816 859 822 
856 822 859 888 
857 822 888 882 
858 816 812 859 
859 859 812 2577 
860 859 2577 2580 
861 853 2582 812 
862 812 2582 2586 
863 812 2586 2589 
864 2589 2577 812 
865 2580 860 859 
866 888 859 894 
867 894 859 865 
868 894 865 900 
869 900 865 906 
870 882 876 822 
871 822 876 872 
872 2614 6 2616 
873 2616 6 2 
874 2616 2 2622 
875 2622 2 1751 
876 2622 1751 2628 
877 2628 1751 1733 
878 2628 1733 2634 
879 2634 1733 1731 
880 2634 1731 1728 
881 2634 1728 2643 
882 2643 1728 1724 
883 2643 1724 2649 
884 2649 1724 1717 
885 2649 1717 2655 
886 2655 1717 1719 
887 2655 1719 2661 
888 2655 2661 2664 
889 2664 2661 2667 
890 2664 2667 2670 
891 2670 2667 2673 
892 2670 2673 2676 
893 2676 2673 2679 
894 2676 2679 2682 
895 2682 2679 2685 
896 2682 2685 2688 
897 2688 2685 2691 
898 2688 2691 2694 
899 2694 2691 2697 
900 2694 2697 2700 
901 2700 2697 2703 
902 2700 2703 2706 
903 2706 2703 2709 
904 2706 2709 2712 
905 2712 2709 2715 
906 2712 2715 2718 
907 2718 2715 2721 
908 2718 2721 2724 
909 2724 2721 2727 
910 2724 2727 2730 
911 2730 2727 2733 
912 2730 2733 2736 
913 2736 2733 2739 
914 2736 2739 2742 
915 2742 2739 2745 
916 2742 2745 2748 
917 2748 2745 2751 
918 2748 2751 2754 
919 2754 2751 2757 
920 2754 2757 2760 
921 2760 2757 2763 
922 2760 2763 2766 
923 2766 2763 2769 
924 2766 2769 2772 
925 2772 2769 2614 
926 2772 2614 2616 
951 2851 864 2853 
952 2853 864 860 
953 2853 860 2859 
954 2859 860 2580 
955 2859 2580 2865 
956 2865 2580 2577 
957 2865 2577 2871 
958 2871 2577 2589 
959 2871 2589 2586 
960 2871 2586 2880 
961 2880 2586 2582 
962 2880 2582 2886 
963 2886 2582 853 
964 2886 853 2892 
965 2892 853 855 
966 2892 855 2898 
967 2892 2898 2901 
968 2901 2898 2904 
969 2901 2904 2907 
970 2907 2904 2910 
971 2907 2910 2913 
972 2913 2910 2916 
973 2913 2916 2919 
974 2919 2916 2922 
975 2919 2922 2925 
976 2925 2922 2928 
977 2925 2928 2931 
978 2931 2928 2934 
979 2931 2934 2937 
980 2937 2934 2940 
981 2937 2940 2943 
982 2943 2940 2946 
983 2943 2946 2949 
984 2949 2946 2952 
985 2949 2952 2955 
986 2955 2952 2958 
987 2955 2958 2961 
988 2961 2958 2964 
989 2961 2964 2967 
990 2967 2964 2970 
991 2967 2970 2973 
992 2973 2970 2976 
993 2973 2976 2979 
994 2979 2976 2982 
995 2979 2982 2985 
996 2985 2982 2988 
997 2985 2988 2991 
998 2991 2988 2994 
999 2991 2994 2997 
1000 2997 2994 3000 
1001 2997 3000 3003 
1002 3003 3000 3006 
1003 3003 3006 3009 
1004 3009 3006 2851 
1005 3009 2851 2853 
1030 2851 2976 864 
1031 864 2976 2970 
1032 864 2970 2964 
1033 2976 2851 2982 
1034 2982 2851 3006 
1035 2982 3006 2988 
1036 2988 3006 3000 
1037 2988 3000 2994 
1038 2964 2958 864 
1039 864 2958 2952 
1040 864 2952 855 
1041 855 2952 2946 
1042 855 2946 2940 
1043 2940 2934 855 
1044 855 2934 2898 
1045 2898 2934 2928 
1046 2898 2928 2904 
1047 2904 2928 2922 
1048 2904 2922 2910 
1049 2910 2922 2916 
1050 855 811 864 
1051 864 811 861 
1052 861 811 813 
1053 861 813 885 
1054 885 813 879 
1055 879 813 819 
1056 879 819 873 
1057 873 819 871 
1058 871 819 825 
1059 871 825 831 
1060 831 837 871 
1061 871 837 843 
1062 871 843 807 
1063 871 807 915 
1064 915 807 673 
1065 915 673 1020 
1066 1020 673 675 
1067 1020 675 1014 
1068 1014 675 681 
1069 1014 681 1008 
1070 1008 681 687 
1071 1008 687 1002 
1072 1002 687 693 
1073 1002 693 996 
1074 996 693 699 
1075 996 699 990 
1076 990 699 705 
1077 990 705 984 
1078 984 705 711 
1079 984 711 978 
1080 978 711 717 
1081 978 717 723 
1082 978 723 972 
1083 972 723 729 
1084 972 729 735 
1085 735 741 972 
1086 972 741 747 
1087 972 747 966 
1088 966 747 753 
1089 966 753 759 
1090 966 759 960 
1091 960 759 765 
1092 960 765 954 
1093 954 765 771 
1094 954 771 948 
1095 948 771 777 
1096 948 777 942 
1097 942 777 783 
1098 942 783 936 
1099 936 783 789 
1100 936 789 930 
1101 930 789 795 
1102 930 795 921 
1103 921 795 669 
1104 921 669 919 
1105 919 669 1029 
1106 1029 669 559 
1107 1029 559 561 
1108 1029 561 1155 
1109 1155 561 570 
1110 1155 570 1149 
1111 1149 570 576 
1112 1149 576 1143 
1113 1143 576 582 
1114 1143 582 1137 
1115 1137 582 588 
1116 1137 588 1131 
1117 1131 588 594 
1118 1131 594 1125 
1119 1125 594 600 
1120 1125 600 1119 
1121 1119 600 606 
1122 1119 606 1113 
1123 1113 606 1107 
1124 1107 606 612 
1125 1107 612 1101 
1126 1101 612 1095 
1127 1095 612 1089 
1128 1089 612 1083 
1129 1083 612 618 
1130 1083 618 1077 
1131 1077 618 1071 
1132 1071 618 624 
1133 1071 624 1065 
1134 1065 624 630 
1135 1065 630 1059 
1136 1059 630 636 
1137 1059 636 1053 
1138 1053 636 642 
1139 1053 642 1047 
1140 1047 642 648 
1141 1047 648 1041 
1142 1041 648 654 
1143 1041 654 1035 
1144 1035 654 660 
1145 1035 660 1033 
1146 1033 660 555 
1147 1033 555 1167 
1148 1167 555 421 
1149 1167 421 1272 
1150 1272 421 423 
1151 1272 423 1266 
1152 1266 423 429 
1153 1266 429 1260 
1154 1260 429 435 
1155 1260 435 1254 
1156 1254 435 441 
1157 1254 441 1248 
1158 1248 441 447 
1159 1248 447 1242 
1160 1242 447 453 
1161 1242 453 1236 
1162 1236 453 459 
1163 1236 459 1230 
1164 1230 459 465 
1165 1230 465 471 
1166 1230 471 1224 
1167 1224 471 477 
1168 1224 477 483 
1169 483 489 1224 
1170 1224 489 495 
1171 1224 495 1218 
1172 1218 495 501 
1173 1218 501 507 
1174 1218 507 1212 
1175 1212 507 513 
1176 1212 513 1206 
1177 1206 513 519 
1178 1206 519 1200 
1179 1200 519 525 
1180 1200 525 1194 
1181 1194 525 531 
1182 1194 531 1188 
1183 1188 531 537 
1184 1188 537 1182 
1185 1182 537 543 
1186 1182 543 1173 
1187 1173 543 417 
1188 1173 417 1171 
1189 1171 417 1281 
1190 1281 417 307 
1191 1281 307 309 
1192 1281 309 1407 
1193 1407 309 318 
1194 1407 318 1401 
1195 1401 318 324 
1196 1401 324 1395 
1197 1395 324 330 
1198 1395 330 1389 
1199 1389 330 336 
1200 1389 336 1383 
1201 1383 336 342 
1202 1383 342 1377 
1203 1377 342 348 
1204 1377 348 1371 
1205 1371 348 354 
1206 1371 354 1365 
1207 1365 354 1359 
1208 1359 354 360 
1209 1359 360 1353 
1210 1353 360 1347 
1211 1347 360 1341 
1212 1341 360 1335 
1213 1335 360 366 
1214 1335 366 1329 
1215 1329 366 1323 
1216 1323 366 372 
1217 1323 372 1317 
1218 1317 372 378 
1219 1317 378 1311 
1220 1311 378 384 
1221 1311 384 1305 
1222 1305 384 390 
1223 1305 390 1299 
1224 1299 390 396 
1225 1299 396 1293 
1226 1293 396 402 
1227 1293 402 1287 
1228 1287 402 408 
1229 1287 408 1285 
1230 1285 408 303 
1231 1285 303 1419 
1232 1419 303 169 
1233 1419 169 1524 
1234 1524 169 171 
1235 1524 171 1518 
1236 1518 171 177 
1237 1518 177 1512 
1238 1512 177 183 
1239 1512 183 1506 
1240 1506 183 189 
1241 1506 189 1500 
1242 1500 189 195 
1243 1500 195 1494 
1244 1494 195 201 
1245 1494 201 1488 
1246 1488 201 207 
1247 1488 207 1482 
1248 1482 207 213 
1249 1482 213 219 
1250 1482 219 1476 
1251 1476 219 225 
1252 1476 225 231 
1253 231 237 1476 
1254 1476 237 243 
1255 1476 243 1470 
1256 1470 243 249 
1257 1470 249 255 
1258 1470 255 1464 
1259 1464 255 261 
1260 1464 261 1458 
1261 1458 261 267 
1262 1458 267 1452 
1263 1452 267 273 
1264 1452 273 1446 
1265 1446 273 279 
1266 1446 279 1440 
1267 1440 279 285 
1268 1440 285 1434 
1269 1434 285 291 
1270 1434 291 1425 
1271 1425 291 165 
1272 1425 165 1423 
1273 1423 165 1533 
1274 1533 165 55 
1275 1533 55 57 
1276 1533 57 1659 
1277 1659 57 66 
1278 1659 66 1653 
1279 1653 66 72 
1280 1653 72 1647 
1281 1647 72 78 
1282 1647 78 1641 
1283 1641 78 84 
1284 1641 84 1635 
1285 1635 84 90 
1286 1635 90 1629 
1287 1629 90 96 
1288 1629 96 1623 
1289 1623 96 102 
1290 1623 102 1617 
1291 1617 102 1611 
1292 1611 102 108 
1293 1611 108 1605 
1294 1605 108 1599 
1295 1599 108 1593 
1296 1593 108 1587 
1297 1587 108 114 
1298 1587 114 1581 
1299 1581 114 1575 
1300 1575 114 120 
1301 1575 120 1569 
1302 1569 120 126 
1303 1569 126 1563 
1304 1563 126 132 
1305 1563 132 1557 
1306 1557 132 138 
1307 1557 138 1551 
1308 1551 138 144 
1309 1551 144 1545 
1310 1545 144 150 
1311 1545 150 1539 
1312 1539 150 156 
1313 1539 156 1537 
1314 1537 156 51 
1315 1537 51 1671 
1316 1671 51 7 
1317 1671 7 1707 
1318 1707 7 1701 
1319 1701 7 1695 
1320 1695 7 1689 
1321 1689 7 1683 
1322 1683 7 9 
1323 1683 9 15 
1324 1683 15 1677 
1325 1677 15 21 
1326 1677 21 3 
1327 3 21 27 
1328 3 27 33 
1329 33 39 3 
1330 1677 3 1675 
1331 1675 3 6 
1332 1675 6 1719 
1333 1719 6 2721 
1334 1719 2721 2715 
1335 2614 2739 6 
1336 6 2739 2733 
1337 6 2733 2727 
1338 2739 2614 2745 
1339 2745 2614 2769 
1340 2745 2769 2751 
1341 2751 2769 2763 
1342 2751 2763 2757 
1343 2727 2721 6 
1344 2715 2709 1719 
1345 1719 2709 2703 
1346 1719 2703 2697 
1347 1719 2697 2661 
1348 2661 2697 2691 
1349 2661 2691 2667 
1350 2667 2691 2685 
1351 2667 2685 2673 
1352 2673 2685 2679 
1353 885 891 861 
1354 861 891 867 
1355 867 891 897 
1356 867 897 903 
$EndElements
