v 21.6 7.8 0.3
v 21.6 7.8 0
l 1 2
v 2.4 7.8 0
v 2.4 7.8 0.3
l 3 4
v 2.4 7.2 0.3
v 2.4 7.2 0
l 5 6
v 21.6 7.2 0
v 21.6 7.2 0.3
l 7 8
v 21.6 7.2 0.3
v 21.5453 7.29202 0.3
l 9 10
v 21.5453 7.29202 0.3
v 21.5115 7.39357 0.3
l 11 12
v 21.5115 7.39357 0.3
v 21.5 7.5 0.3
l 13 14
v 21.5 7.5 0.3
v 21.5115 7.60643 0.3
l 15 16
v 21.5115 7.60643 0.3
v 21.5453 7.70798 0.3
l 17 18
v 21.5453 7.70798 0.3
v 21.6 7.8 0.3
l 19 20
v 2.48854 7.39357 0.3
v 2.45469 7.29202 0.3
l 21 22
v 2.4 7.8 0.3
v 2.45469 7.70798 0.3
l 23 24
v 2.45469 7.70798 0.3
v 2.48854 7.60643 0.3
l 25 26
v 2.48854 7.60643 0.3
v 2.5 7.5 0.3
l 27 28
v 2.5 7.5 0.3
v 2.48854 7.39357 0.3
l 29 30
v 2.45469 7.29202 0.3
v 2.4 7.2 0.3
l 31 32
