v 19.4 7.8 0.3
v 21.6 7.8 0.3
l 1 2
v 21.6 7.8 0.3
v 21.6 7.8 0
l 3 4
v 21.5453 7.70798 0.3
v 21.6 7.8 0.3
l 5 6
v 21.6 7.8 0
v 19.4 7.8 0
l 7 8
v 21.682 7.88582 0
v 21.6 7.8 0
l 9 10
v 21.6 7.8 0.3
v 21.6 7.8 0
l 11 12
v 2.4 7.8 0.3
v 4 7.8 0.3
l 13 14
v 2.4 7.8 0
v 2.4 7.8 0.3
l 15 16
v 2.4 7.8 0.3
v 2.45469 7.70798 0.3
l 17 18
v 4 7.8 0
v 2.4 7.8 0
l 19 20
v 2.4 7.8 0
v 2.31803 7.88582 0
l 21 22
v 2.4 7.8 0
v 2.4 7.8 0.3
l 23 24
v 4.5 7.2 0.3
v 2.4 7.2 0.3
l 25 26
v 2.4 7.2 0.3
v 2.4 7.2 0
l 27 28
v 2.45469 7.29202 0.3
v 2.4 7.2 0.3
l 29 30
v 2.4 7.2 0
v 4.5 7.2 0
l 31 32
v 2.31803 7.11418 0
v 2.4 7.2 0
l 33 34
v 2.4 7.2 0.3
v 2.4 7.2 0
l 35 36
v 21.6 7.2 0.3
v 20 7.2 0.3
l 37 38
v 21.6 7.2 0
v 21.6 7.2 0.3
l 39 40
v 21.6 7.2 0.3
v 21.5453 7.29202 0.3
l 41 42
v 20 7.2 0
v 21.6 7.2 0
l 43 44
v 21.6 7.2 0
v 21.682 7.11418 0
l 45 46
v 21.6 7.2 0
v 21.6 7.2 0.3
l 47 48
