v 19.4 7.8 0.3
v 21.6 7.8 0.3
l 1 2
v 21.6 7.8 0
v 19.4 7.8 0
l 3 4
v 18.9125 7.41126 0
v 18.9 7.3 0
l 5 6
v 18.9 7.3 0.3
v 18.9125 7.41126 0.3
l 7 8
v 18.9495 7.51694 0
v 18.9125 7.41126 0
l 9 10
v 18.9125 7.41126 0.3
v 18.9495 7.51694 0.3
l 11 12
v 19.0091 7.61174 0
v 18.9495 7.51694 0
l 13 14
v 18.9495 7.51694 0.3
v 19.0091 7.61174 0.3
l 15 16
v 19.0883 7.69092 0
v 19.0091 7.61174 0
l 17 18
v 19.0091 7.61174 0.3
v 19.0883 7.69092 0.3
l 19 20
v 19.1831 7.75048 0
v 19.0883 7.69092 0
l 21 22
v 19.0883 7.69092 0.3
v 19.1831 7.75048 0.3
l 23 24
v 19.2887 7.78746 0
v 19.1831 7.75048 0
l 25 26
v 19.1831 7.75048 0.3
v 19.2887 7.78746 0.3
l 27 28
v 19.4 7.8 0
v 19.2887 7.78746 0
l 29 30
v 19.2887 7.78746 0.3
v 19.4 7.8 0.3
l 31 32
v 18.9 3.14584 0.3
v 18.9 7.3 0.3
l 33 34
v 18.9 7.3 0
v 18.9 3.14584 0
l 35 36
v 17.1137 2.98955 0
v 17.1 3.14584 0
l 37 38
v 17.1 3.14584 0.3
v 17.1137 2.98955 0.3
l 39 40
v 17.1137 2.98955 0.3
v 17.1543 2.83802 0.3
l 41 42
v 17.1543 2.83802 0
v 17.1137 2.98955 0
l 43 44
v 17.1543 2.83802 0.3
v 17.2206 2.69584 0.3
l 45 46
v 17.2206 2.69584 0
v 17.1543 2.83802 0
l 47 48
v 17.2206 2.69584 0.3
v 17.3106 2.56733 0.3
l 49 50
v 17.3106 2.56733 0
v 17.2206 2.69584 0
l 51 52
v 17.3106 2.56733 0.3
v 17.4215 2.4564 0.3
l 53 54
v 17.4215 2.4564 0
v 17.3106 2.56733 0
l 55 56
v 17.4215 2.4564 0.3
v 17.55 2.36642 0.3
l 57 58
v 17.55 2.36642 0
v 17.4215 2.4564 0
l 59 60
v 17.55 2.36642 0.3
v 17.6922 2.30011 0.3
l 61 62
v 17.6922 2.30011 0
v 17.55 2.36642 0
l 63 64
v 17.6922 2.30011 0.3
v 17.8437 2.25951 0.3
l 65 66
v 17.8437 2.25951 0
v 17.6922 2.30011 0
l 67 68
v 17.8437 2.25951 0.3
v 18 2.24584 0.3
l 69 70
v 18 2.24584 0
v 17.8437 2.25951 0
l 71 72
v 18 2.24584 0.3
v 18.1563 2.25951 0.3
l 73 74
v 18.1563 2.25951 0
v 18 2.24584 0
l 75 76
v 18.1563 2.25951 0.3
v 18.3078 2.30011 0.3
l 77 78
v 18.3078 2.30011 0
v 18.1563 2.25951 0
l 79 80
v 18.3078 2.30011 0.3
v 18.45 2.36642 0.3
l 81 82
v 18.45 2.36642 0
v 18.3078 2.30011 0
l 83 84
v 18.45 2.36642 0.3
v 18.5785 2.4564 0.3
l 85 86
v 18.5785 2.4564 0
v 18.45 2.36642 0
l 87 88
v 18.5785 2.4564 0.3
v 18.6894 2.56733 0.3
l 89 90
v 18.6894 2.56733 0
v 18.5785 2.4564 0
l 91 92
v 18.6894 2.56733 0.3
v 18.7794 2.69584 0.3
l 93 94
v 18.7794 2.69584 0
v 18.6894 2.56733 0
l 95 96
v 18.7794 2.69584 0.3
v 18.8457 2.83802 0.3
l 97 98
v 18.8457 2.83802 0
v 18.7794 2.69584 0
l 99 100
v 18.8457 2.83802 0.3
v 18.8863 2.98955 0.3
l 101 102
v 18.8863 2.98955 0
v 18.8457 2.83802 0
l 103 104
v 18.9 3.14584 0
v 18.8863 2.98955 0
l 105 106
v 18.8863 2.98955 0.3
v 18.9 3.14584 0.3
l 107 108
v 17.1 11.8542 0.3
v 17.1 3.14584 0.3
l 109 110
v 17.1 3.14584 0
v 17.1 11.8542 0
l 111 112
v 14.1153 12.0676 0
v 14.1 11.8542 0
l 113 114
v 14.1 11.8542 0.3
v 14.1153 12.0676 0.3
l 115 116
v 14.1608 12.2768 0
v 14.1153 12.0676 0
l 117 118
v 14.1153 12.0676 0.3
v 14.1608 12.2768 0.3
l 119 120
v 14.2356 12.4773 0
v 14.1608 12.2768 0
l 121 122
v 14.1608 12.2768 0.3
v 14.2356 12.4773 0.3
l 123 124
v 14.3381 12.6651 0
v 14.2356 12.4773 0
l 125 126
v 14.2356 12.4773 0.3
v 14.3381 12.6651 0.3
l 127 128
v 14.4664 12.8365 0
v 14.3381 12.6651 0
l 129 130
v 14.3381 12.6651 0.3
v 14.4664 12.8365 0.3
l 131 132
v 14.6177 12.9878 0
v 14.4664 12.8365 0
l 133 134
v 14.4664 12.8365 0.3
v 14.6177 12.9878 0.3
l 135 136
v 14.789 13.116 0
v 14.6177 12.9878 0
l 137 138
v 14.6177 12.9878 0.3
v 14.789 13.116 0.3
l 139 140
v 14.9769 13.2186 0
v 14.789 13.116 0
l 141 142
v 14.789 13.116 0.3
v 14.9769 13.2186 0.3
l 143 144
v 15.1774 13.2934 0
v 14.9769 13.2186 0
l 145 146
v 14.9769 13.2186 0.3
v 15.1774 13.2934 0.3
l 147 148
v 15.3865 13.3389 0
v 15.1774 13.2934 0
l 149 150
v 15.1774 13.2934 0.3
v 15.3865 13.3389 0.3
l 151 152
v 15.6 13.3542 0
v 15.3865 13.3389 0
l 153 154
v 15.3865 13.3389 0.3
v 15.6 13.3542 0.3
l 155 156
v 15.8135 13.3389 0
v 15.6 13.3542 0
l 157 158
v 15.6 13.3542 0.3
v 15.8135 13.3389 0.3
l 159 160
v 16.0226 13.2934 0
v 15.8135 13.3389 0
l 161 162
v 15.8135 13.3389 0.3
v 16.0226 13.2934 0.3
l 163 164
v 16.2231 13.2186 0
v 16.0226 13.2934 0
l 165 166
v 16.0226 13.2934 0.3
v 16.2231 13.2186 0.3
l 167 168
v 16.411 13.116 0
v 16.2231 13.2186 0
l 169 170
v 16.2231 13.2186 0.3
v 16.411 13.116 0.3
l 171 172
v 16.5823 12.9878 0
v 16.411 13.116 0
l 173 174
v 16.411 13.116 0.3
v 16.5823 12.9878 0.3
l 175 176
v 16.7336 12.8365 0
v 16.5823 12.9878 0
l 177 178
v 16.5823 12.9878 0.3
v 16.7336 12.8365 0.3
l 179 180
v 16.8619 12.6651 0
v 16.7336 12.8365 0
l 181 182
v 16.7336 12.8365 0.3
v 16.8619 12.6651 0.3
l 183 184
v 16.9644 12.4773 0
v 16.8619 12.6651 0
l 185 186
v 16.8619 12.6651 0.3
v 16.9644 12.4773 0.3
l 187 188
v 17.0392 12.2768 0
v 16.9644 12.4773 0
l 189 190
v 16.9644 12.4773 0.3
v 17.0392 12.2768 0.3
l 191 192
v 17.0847 12.0676 0
v 17.0392 12.2768 0
l 193 194
v 17.0392 12.2768 0.3
v 17.0847 12.0676 0.3
l 195 196
v 17.1 11.8542 0
v 17.0847 12.0676 0
l 197 198
v 17.0847 12.0676 0.3
v 17.1 11.8542 0.3
l 199 200
v 14.1 3.14584 0.3
v 14.1 11.8542 0.3
l 201 202
v 14.1 11.8542 0
v 14.1 3.14584 0
l 203 204
v 12.3137 2.98955 0
v 12.3 3.14584 0
l 205 206
v 12.3 3.14584 0.3
v 12.3137 2.98955 0.3
l 207 208
v 12.3137 2.98955 0.3
v 12.3543 2.83802 0.3
l 209 210
v 12.3543 2.83802 0
v 12.3137 2.98955 0
l 211 212
v 12.3543 2.83802 0.3
v 12.4206 2.69584 0.3
l 213 214
v 12.4206 2.69584 0
v 12.3543 2.83802 0
l 215 216
v 12.4206 2.69584 0.3
v 12.5106 2.56733 0.3
l 217 218
v 12.5106 2.56733 0
v 12.4206 2.69584 0
l 219 220
v 12.5106 2.56733 0.3
v 12.6215 2.4564 0.3
l 221 222
v 12.6215 2.4564 0
v 12.5106 2.56733 0
l 223 224
v 12.6215 2.4564 0.3
v 12.75 2.36642 0.3
l 225 226
v 12.75 2.36642 0
v 12.6215 2.4564 0
l 227 228
v 12.75 2.36642 0.3
v 12.8922 2.30011 0.3
l 229 230
v 12.8922 2.30011 0
v 12.75 2.36642 0
l 231 232
v 12.8922 2.30011 0.3
v 13.0437 2.25951 0.3
l 233 234
v 13.0437 2.25951 0
v 12.8922 2.30011 0
l 235 236
v 13.0437 2.25951 0.3
v 13.2 2.24584 0.3
l 237 238
v 13.2 2.24584 0
v 13.0437 2.25951 0
l 239 240
v 13.2 2.24584 0.3
v 13.3563 2.25951 0.3
l 241 242
v 13.3563 2.25951 0
v 13.2 2.24584 0
l 243 244
v 13.3563 2.25951 0.3
v 13.5078 2.30011 0.3
l 245 246
v 13.5078 2.30011 0
v 13.3563 2.25951 0
l 247 248
v 13.5078 2.30011 0.3
v 13.65 2.36642 0.3
l 249 250
v 13.65 2.36642 0
v 13.5078 2.30011 0
l 251 252
v 13.65 2.36642 0.3
v 13.7785 2.4564 0.3
l 253 254
v 13.7785 2.4564 0
v 13.65 2.36642 0
l 255 256
v 13.7785 2.4564 0.3
v 13.8894 2.56733 0.3
l 257 258
v 13.8894 2.56733 0
v 13.7785 2.4564 0
l 259 260
v 13.8894 2.56733 0.3
v 13.9794 2.69584 0.3
l 261 262
v 13.9794 2.69584 0
v 13.8894 2.56733 0
l 263 264
v 13.9794 2.69584 0.3
v 14.0457 2.83802 0.3
l 265 266
v 14.0457 2.83802 0
v 13.9794 2.69584 0
l 267 268
v 14.0457 2.83802 0.3
v 14.0863 2.98955 0.3
l 269 270
v 14.0863 2.98955 0
v 14.0457 2.83802 0
l 271 272
v 14.1 3.14584 0
v 14.0863 2.98955 0
l 273 274
v 14.0863 2.98955 0.3
v 14.1 3.14584 0.3
l 275 276
v 12.3 11.8542 0.3
v 12.3 3.14584 0.3
l 277 278
v 12.3 3.14584 0
v 12.3 11.8542 0
l 279 280
v 9.31527 12.0676 0
v 9.3 11.8542 0
l 281 282
v 9.3 11.8542 0.3
v 9.31527 12.0676 0.3
l 283 284
v 9.36076 12.2768 0
v 9.31527 12.0676 0
l 285 286
v 9.31527 12.0676 0.3
v 9.36076 12.2768 0.3
l 287 288
v 9.43555 12.4773 0
v 9.36076 12.2768 0
l 289 290
v 9.36076 12.2768 0.3
v 9.43555 12.4773 0.3
l 291 292
v 9.53812 12.6651 0
v 9.43555 12.4773 0
l 293 294
v 9.43555 12.4773 0.3
v 9.53812 12.6651 0.3
l 295 296
v 9.66638 12.8365 0
v 9.53812 12.6651 0
l 297 298
v 9.53812 12.6651 0.3
v 9.66638 12.8365 0.3
l 299 300
v 9.81771 12.9878 0
v 9.66638 12.8365 0
l 301 302
v 9.66638 12.8365 0.3
v 9.81771 12.9878 0.3
l 303 304
v 9.98904 13.116 0
v 9.81771 12.9878 0
l 305 306
v 9.81771 12.9878 0.3
v 9.98904 13.116 0.3
l 307 308
v 10.1769 13.2186 0
v 9.98904 13.116 0
l 309 310
v 9.98904 13.116 0.3
v 10.1769 13.2186 0.3
l 311 312
v 10.3774 13.2934 0
v 10.1769 13.2186 0
l 313 314
v 10.1769 13.2186 0.3
v 10.3774 13.2934 0.3
l 315 316
v 10.5865 13.3389 0
v 10.3774 13.2934 0
l 317 318
v 10.3774 13.2934 0.3
v 10.5865 13.3389 0.3
l 319 320
v 10.8 13.3542 0
v 10.5865 13.3389 0
l 321 322
v 10.5865 13.3389 0.3
v 10.8 13.3542 0.3
l 323 324
v 11.0135 13.3389 0
v 10.8 13.3542 0
l 325 326
v 10.8 13.3542 0.3
v 11.0135 13.3389 0.3
l 327 328
v 11.2226 13.2934 0
v 11.0135 13.3389 0
l 329 330
v 11.0135 13.3389 0.3
v 11.2226 13.2934 0.3
l 331 332
v 11.4231 13.2186 0
v 11.2226 13.2934 0
l 333 334
v 11.2226 13.2934 0.3
v 11.4231 13.2186 0.3
l 335 336
v 11.611 13.116 0
v 11.4231 13.2186 0
l 337 338
v 11.4231 13.2186 0.3
v 11.611 13.116 0.3
l 339 340
v 11.7823 12.9878 0
v 11.611 13.116 0
l 341 342
v 11.611 13.116 0.3
v 11.7823 12.9878 0.3
l 343 344
v 11.9336 12.8365 0
v 11.7823 12.9878 0
l 345 346
v 11.7823 12.9878 0.3
v 11.9336 12.8365 0.3
l 347 348
v 12.0619 12.6651 0
v 11.9336 12.8365 0
l 349 350
v 11.9336 12.8365 0.3
v 12.0619 12.6651 0.3
l 351 352
v 12.1644 12.4773 0
v 12.0619 12.6651 0
l 353 354
v 12.0619 12.6651 0.3
v 12.1644 12.4773 0.3
l 355 356
v 12.2392 12.2768 0
v 12.1644 12.4773 0
l 357 358
v 12.1644 12.4773 0.3
v 12.2392 12.2768 0.3
l 359 360
v 12.2847 12.0676 0
v 12.2392 12.2768 0
l 361 362
v 12.2392 12.2768 0.3
v 12.2847 12.0676 0.3
l 363 364
v 12.3 11.8542 0
v 12.2847 12.0676 0
l 365 366
v 12.2847 12.0676 0.3
v 12.3 11.8542 0.3
l 367 368
v 9.3 3.14584 0.3
v 9.3 11.8542 0.3
l 369 370
v 9.3 11.8542 0
v 9.3 3.14584 0
l 371 372
v 7.51367 2.98955 0
v 7.5 3.14584 0
l 373 374
v 7.5 3.14584 0.3
v 7.51367 2.98955 0.3
l 375 376
v 7.51367 2.98955 0.3
v 7.55428 2.83802 0.3
l 377 378
v 7.55428 2.83802 0
v 7.51367 2.98955 0
l 379 380
v 7.55428 2.83802 0.3
v 7.62058 2.69584 0.3
l 381 382
v 7.62058 2.69584 0
v 7.55428 2.83802 0
l 383 384
v 7.62058 2.69584 0.3
v 7.71056 2.56733 0.3
l 385 386
v 7.71056 2.56733 0
v 7.62058 2.69584 0
l 387 388
v 7.71056 2.56733 0.3
v 7.82149 2.4564 0.3
l 389 390
v 7.82149 2.4564 0
v 7.71056 2.56733 0
l 391 392
v 7.82149 2.4564 0.3
v 7.95 2.36642 0.3
l 393 394
v 7.95 2.36642 0
v 7.82149 2.4564 0
l 395 396
v 7.95 2.36642 0.3
v 8.09218 2.30011 0.3
l 397 398
v 8.09218 2.30011 0
v 7.95 2.36642 0
l 399 400
v 8.09218 2.30011 0.3
v 8.24372 2.25951 0.3
l 401 402
v 8.24372 2.25951 0
v 8.09218 2.30011 0
l 403 404
v 8.24372 2.25951 0.3
v 8.4 2.24584 0.3
l 405 406
v 8.4 2.24584 0
v 8.24372 2.25951 0
l 407 408
v 8.4 2.24584 0.3
v 8.55628 2.25951 0.3
l 409 410
v 8.55628 2.25951 0
v 8.4 2.24584 0
l 411 412
v 8.55628 2.25951 0.3
v 8.70782 2.30011 0.3
l 413 414
v 8.70782 2.30011 0
v 8.55628 2.25951 0
l 415 416
v 8.70782 2.30011 0.3
v 8.85 2.36642 0.3
l 417 418
v 8.85 2.36642 0
v 8.70782 2.30011 0
l 419 420
v 8.85 2.36642 0.3
v 8.97851 2.4564 0.3
l 421 422
v 8.97851 2.4564 0
v 8.85 2.36642 0
l 423 424
v 8.97851 2.4564 0.3
v 9.08944 2.56733 0.3
l 425 426
v 9.08944 2.56733 0
v 8.97851 2.4564 0
l 427 428
v 9.08944 2.56733 0.3
v 9.17942 2.69584 0.3
l 429 430
v 9.17942 2.69584 0
v 9.08944 2.56733 0
l 431 432
v 9.17942 2.69584 0.3
v 9.24572 2.83802 0.3
l 433 434
v 9.24572 2.83802 0
v 9.17942 2.69584 0
l 435 436
v 9.24572 2.83802 0.3
v 9.28633 2.98955 0.3
l 437 438
v 9.28633 2.98955 0
v 9.24572 2.83802 0
l 439 440
v 9.3 3.14584 0
v 9.28633 2.98955 0
l 441 442
v 9.28633 2.98955 0.3
v 9.3 3.14584 0.3
l 443 444
v 7.5 11.8542 0.3
v 7.5 3.14584 0.3
l 445 446
v 7.5 3.14584 0
v 7.5 11.8542 0
l 447 448
v 4.51527 12.0676 0
v 4.5 11.8542 0
l 449 450
v 4.5 11.8542 0.3
v 4.51527 12.0676 0.3
l 451 452
v 4.56076 12.2768 0
v 4.51527 12.0676 0
l 453 454
v 4.51527 12.0676 0.3
v 4.56076 12.2768 0.3
l 455 456
v 4.63555 12.4773 0
v 4.56076 12.2768 0
l 457 458
v 4.56076 12.2768 0.3
v 4.63555 12.4773 0.3
l 459 460
v 4.73812 12.6651 0
v 4.63555 12.4773 0
l 461 462
v 4.63555 12.4773 0.3
v 4.73812 12.6651 0.3
l 463 464
v 4.86638 12.8365 0
v 4.73812 12.6651 0
l 465 466
v 4.73812 12.6651 0.3
v 4.86638 12.8365 0.3
l 467 468
v 5.01771 12.9878 0
v 4.86638 12.8365 0
l 469 470
v 4.86638 12.8365 0.3
v 5.01771 12.9878 0.3
l 471 472
v 5.18904 13.116 0
v 5.01771 12.9878 0
l 473 474
v 5.01771 12.9878 0.3
v 5.18904 13.116 0.3
l 475 476
v 5.37688 13.2186 0
v 5.18904 13.116 0
l 477 478
v 5.18904 13.116 0.3
v 5.37688 13.2186 0.3
l 479 480
v 5.5774 13.2934 0
v 5.37688 13.2186 0
l 481 482
v 5.37688 13.2186 0.3
v 5.5774 13.2934 0.3
l 483 484
v 5.78653 13.3389 0
v 5.5774 13.2934 0
l 485 486
v 5.5774 13.2934 0.3
v 5.78653 13.3389 0.3
l 487 488
v 6 13.3542 0
v 5.78653 13.3389 0
l 489 490
v 5.78653 13.3389 0.3
v 6 13.3542 0.3
l 491 492
v 6.21347 13.3389 0
v 6 13.3542 0
l 493 494
v 6 13.3542 0.3
v 6.21347 13.3389 0.3
l 495 496
v 6.4226 13.2934 0
v 6.21347 13.3389 0
l 497 498
v 6.21347 13.3389 0.3
v 6.4226 13.2934 0.3
l 499 500
v 6.62312 13.2186 0
v 6.4226 13.2934 0
l 501 502
v 6.4226 13.2934 0.3
v 6.62312 13.2186 0.3
l 503 504
v 6.81096 13.116 0
v 6.62312 13.2186 0
l 505 506
v 6.62312 13.2186 0.3
v 6.81096 13.116 0.3
l 507 508
v 6.98229 12.9878 0
v 6.81096 13.116 0
l 509 510
v 6.81096 13.116 0.3
v 6.98229 12.9878 0.3
l 511 512
v 7.13362 12.8365 0
v 6.98229 12.9878 0
l 513 514
v 6.98229 12.9878 0.3
v 7.13362 12.8365 0.3
l 515 516
v 7.26188 12.6651 0
v 7.13362 12.8365 0
l 517 518
v 7.13362 12.8365 0.3
v 7.26188 12.6651 0.3
l 519 520
v 7.36445 12.4773 0
v 7.26188 12.6651 0
l 521 522
v 7.26188 12.6651 0.3
v 7.36445 12.4773 0.3
l 523 524
v 7.43924 12.2768 0
v 7.36445 12.4773 0
l 525 526
v 7.36445 12.4773 0.3
v 7.43924 12.2768 0.3
l 527 528
v 7.48473 12.0676 0
v 7.43924 12.2768 0
l 529 530
v 7.43924 12.2768 0.3
v 7.48473 12.0676 0.3
l 531 532
v 7.5 11.8542 0
v 7.48473 12.0676 0
l 533 534
v 7.48473 12.0676 0.3
v 7.5 11.8542 0.3
l 535 536
v 4.5 8.3 0.3
v 4.5 11.8542 0.3
l 537 538
v 4.5 11.8542 0
v 4.5 8.3 0
l 539 540
v 4.11126 7.81254 0
v 4 7.8 0
l 541 542
v 4 7.8 0.3
v 4.11126 7.81254 0.3
l 543 544
v 4.21694 7.84952 0
v 4.11126 7.81254 0
l 545 546
v 4.11126 7.81254 0.3
v 4.21694 7.84952 0.3
l 547 548
v 4.31175 7.90908 0
v 4.21694 7.84952 0
l 549 550
v 4.21694 7.84952 0.3
v 4.31175 7.90908 0.3
l 551 552
v 4.39092 7.98826 0
v 4.31175 7.90908 0
l 553 554
v 4.31175 7.90908 0.3
v 4.39092 7.98826 0.3
l 555 556
v 4.45048 8.08306 0
v 4.39092 7.98826 0
l 557 558
v 4.39092 7.98826 0.3
v 4.45048 8.08306 0.3
l 559 560
v 4.48746 8.18874 0
v 4.45048 8.08306 0
l 561 562
v 4.45048 8.08306 0.3
v 4.48746 8.18874 0.3
l 563 564
v 4.5 8.3 0
v 4.48746 8.18874 0
l 565 566
v 4.48746 8.18874 0.3
v 4.5 8.3 0.3
l 567 568
v 2.4 7.8 0.3
v 4 7.8 0.3
l 569 570
v 4 7.8 0
v 2.4 7.8 0
l 571 572
v 4.5 7.2 0.3
v 2.4 7.2 0.3
l 573 574
v 2.4 7.2 0
v 4.5 7.2 0
l 575 576
v 4.6 7.2 0.3
v 4.5 7.2 0.3
l 577 578
v 4.5 7.2 0
v 4.6 7.2 0
l 579 580
v 5.08746 7.58874 0
v 5.1 7.7 0
l 581 582
v 5.1 7.7 0.3
v 5.08746 7.58874 0.3
l 583 584
v 5.05048 7.48306 0
v 5.08746 7.58874 0
l 585 586
v 5.08746 7.58874 0.3
v 5.05048 7.48306 0.3
l 587 588
v 4.99092 7.38826 0
v 5.05048 7.48306 0
l 589 590
v 5.05048 7.48306 0.3
v 4.99092 7.38826 0.3
l 591 592
v 4.91175 7.30908 0
v 4.99092 7.38826 0
l 593 594
v 4.99092 7.38826 0.3
v 4.91175 7.30908 0.3
l 595 596
v 4.81694 7.24952 0
v 4.91175 7.30908 0
l 597 598
v 4.91175 7.30908 0.3
v 4.81694 7.24952 0.3
l 599 600
v 4.71126 7.21254 0
v 4.81694 7.24952 0
l 601 602
v 4.81694 7.24952 0.3
v 4.71126 7.21254 0.3
l 603 604
v 4.6 7.2 0
v 4.71126 7.21254 0
l 605 606
v 4.71126 7.21254 0.3
v 4.6 7.2 0.3
l 607 608
v 5.1 11.8542 0.3
v 5.1 7.7 0.3
l 609 610
v 5.1 7.7 0
v 5.1 11.8542 0
l 611 612
v 6.88633 12.0104 0
v 6.9 11.8542 0
l 613 614
v 6.9 11.8542 0.3
v 6.88633 12.0104 0.3
l 615 616
v 6.88633 12.0104 0.3
v 6.84572 12.162 0.3
l 617 618
v 6.84572 12.162 0
v 6.88633 12.0104 0
l 619 620
v 6.84572 12.162 0.3
v 6.77942 12.3042 0.3
l 621 622
v 6.77942 12.3042 0
v 6.84572 12.162 0
l 623 624
v 6.77942 12.3042 0.3
v 6.68944 12.4327 0.3
l 625 626
v 6.68944 12.4327 0
v 6.77942 12.3042 0
l 627 628
v 6.68944 12.4327 0.3
v 6.57851 12.5436 0.3
l 629 630
v 6.57851 12.5436 0
v 6.68944 12.4327 0
l 631 632
v 6.57851 12.5436 0.3
v 6.45 12.6336 0.3
l 633 634
v 6.45 12.6336 0
v 6.57851 12.5436 0
l 635 636
v 6.45 12.6336 0.3
v 6.30782 12.6999 0.3
l 637 638
v 6.30782 12.6999 0
v 6.45 12.6336 0
l 639 640
v 6.30782 12.6999 0.3
v 6.15628 12.7405 0.3
l 641 642
v 6.15628 12.7405 0
v 6.30782 12.6999 0
l 643 644
v 6.15628 12.7405 0.3
v 6 12.7542 0.3
l 645 646
v 6 12.7542 0
v 6.15628 12.7405 0
l 647 648
v 6 12.7542 0.3
v 5.84372 12.7405 0.3
l 649 650
v 5.84372 12.7405 0
v 6 12.7542 0
l 651 652
v 5.84372 12.7405 0.3
v 5.69218 12.6999 0.3
l 653 654
v 5.69218 12.6999 0
v 5.84372 12.7405 0
l 655 656
v 5.69218 12.6999 0.3
v 5.55 12.6336 0.3
l 657 658
v 5.55 12.6336 0
v 5.69218 12.6999 0
l 659 660
v 5.55 12.6336 0.3
v 5.42149 12.5436 0.3
l 661 662
v 5.42149 12.5436 0
v 5.55 12.6336 0
l 663 664
v 5.42149 12.5436 0.3
v 5.31056 12.4327 0.3
l 665 666
v 5.31056 12.4327 0
v 5.42149 12.5436 0
l 667 668
v 5.31056 12.4327 0.3
v 5.22058 12.3042 0.3
l 669 670
v 5.22058 12.3042 0
v 5.31056 12.4327 0
l 671 672
v 5.22058 12.3042 0.3
v 5.15428 12.162 0.3
l 673 674
v 5.15428 12.162 0
v 5.22058 12.3042 0
l 675 676
v 5.15428 12.162 0.3
v 5.11367 12.0104 0.3
l 677 678
v 5.11367 12.0104 0
v 5.15428 12.162 0
l 679 680
v 5.1 11.8542 0
v 5.11367 12.0104 0
l 681 682
v 5.11367 12.0104 0.3
v 5.1 11.8542 0.3
l 683 684
v 6.9 3.14584 0.3
v 6.9 11.8542 0.3
l 685 686
v 6.9 11.8542 0
v 6.9 3.14584 0
l 687 688
v 9.88473 2.93237 0
v 9.9 3.14584 0
l 689 690
v 9.9 3.14584 0.3
v 9.88473 2.93237 0.3
l 691 692
v 9.83924 2.72324 0
v 9.88473 2.93237 0
l 693 694
v 9.88473 2.93237 0.3
v 9.83924 2.72324 0.3
l 695 696
v 9.76445 2.52272 0
v 9.83924 2.72324 0
l 697 698
v 9.83924 2.72324 0.3
v 9.76445 2.52272 0.3
l 699 700
v 9.66188 2.33488 0
v 9.76445 2.52272 0
l 701 702
v 9.76445 2.52272 0.3
v 9.66188 2.33488 0.3
l 703 704
v 9.53362 2.16355 0
v 9.66188 2.33488 0
l 705 706
v 9.66188 2.33488 0.3
v 9.53362 2.16355 0.3
l 707 708
v 9.38229 2.01221 0
v 9.53362 2.16355 0
l 709 710
v 9.53362 2.16355 0.3
v 9.38229 2.01221 0.3
l 711 712
v 9.21096 1.88396 0
v 9.38229 2.01221 0
l 713 714
v 9.38229 2.01221 0.3
v 9.21096 1.88396 0.3
l 715 716
v 9.02312 1.78139 0
v 9.21096 1.88396 0
l 717 718
v 9.21096 1.88396 0.3
v 9.02312 1.78139 0.3
l 719 720
v 8.8226 1.7066 0
v 9.02312 1.78139 0
l 721 722
v 9.02312 1.78139 0.3
v 8.8226 1.7066 0.3
l 723 724
v 8.61347 1.66111 0
v 8.8226 1.7066 0
l 725 726
v 8.8226 1.7066 0.3
v 8.61347 1.66111 0.3
l 727 728
v 8.4 1.64584 0
v 8.61347 1.66111 0
l 729 730
v 8.61347 1.66111 0.3
v 8.4 1.64584 0.3
l 731 732
v 8.18653 1.66111 0
v 8.4 1.64584 0
l 733 734
v 8.4 1.64584 0.3
v 8.18653 1.66111 0.3
l 735 736
v 7.9774 1.7066 0
v 8.18653 1.66111 0
l 737 738
v 8.18653 1.66111 0.3
v 7.9774 1.7066 0.3
l 739 740
v 7.77688 1.78139 0
v 7.9774 1.7066 0
l 741 742
v 7.9774 1.7066 0.3
v 7.77688 1.78139 0.3
l 743 744
v 7.58904 1.88396 0
v 7.77688 1.78139 0
l 745 746
v 7.77688 1.78139 0.3
v 7.58904 1.88396 0.3
l 747 748
v 7.41771 2.01221 0
v 7.58904 1.88396 0
l 749 750
v 7.58904 1.88396 0.3
v 7.41771 2.01221 0.3
l 751 752
v 7.26638 2.16355 0
v 7.41771 2.01221 0
l 753 754
v 7.41771 2.01221 0.3
v 7.26638 2.16355 0.3
l 755 756
v 7.13812 2.33488 0
v 7.26638 2.16355 0
l 757 758
v 7.26638 2.16355 0.3
v 7.13812 2.33488 0.3
l 759 760
v 7.03555 2.52272 0
v 7.13812 2.33488 0
l 761 762
v 7.13812 2.33488 0.3
v 7.03555 2.52272 0.3
l 763 764
v 6.96076 2.72324 0
v 7.03555 2.52272 0
l 765 766
v 7.03555 2.52272 0.3
v 6.96076 2.72324 0.3
l 767 768
v 6.91527 2.93237 0
v 6.96076 2.72324 0
l 769 770
v 6.96076 2.72324 0.3
v 6.91527 2.93237 0.3
l 771 772
v 6.9 3.14584 0
v 6.91527 2.93237 0
l 773 774
v 6.91527 2.93237 0.3
v 6.9 3.14584 0.3
l 775 776
v 9.9 11.8542 0.3
v 9.9 3.14584 0.3
l 777 778
v 9.9 3.14584 0
v 9.9 11.8542 0
l 779 780
v 11.6863 12.0104 0
v 11.7 11.8542 0
l 781 782
v 11.7 11.8542 0.3
v 11.6863 12.0104 0.3
l 783 784
v 11.6863 12.0104 0.3
v 11.6457 12.162 0.3
l 785 786
v 11.6457 12.162 0
v 11.6863 12.0104 0
l 787 788
v 11.6457 12.162 0.3
v 11.5794 12.3042 0.3
l 789 790
v 11.5794 12.3042 0
v 11.6457 12.162 0
l 791 792
v 11.5794 12.3042 0.3
v 11.4894 12.4327 0.3
l 793 794
v 11.4894 12.4327 0
v 11.5794 12.3042 0
l 795 796
v 11.4894 12.4327 0.3
v 11.3785 12.5436 0.3
l 797 798
v 11.3785 12.5436 0
v 11.4894 12.4327 0
l 799 800
v 11.3785 12.5436 0.3
v 11.25 12.6336 0.3
l 801 802
v 11.25 12.6336 0
v 11.3785 12.5436 0
l 803 804
v 11.25 12.6336 0.3
v 11.1078 12.6999 0.3
l 805 806
v 11.1078 12.6999 0
v 11.25 12.6336 0
l 807 808
v 11.1078 12.6999 0.3
v 10.9563 12.7405 0.3
l 809 810
v 10.9563 12.7405 0
v 11.1078 12.6999 0
l 811 812
v 10.9563 12.7405 0.3
v 10.8 12.7542 0.3
l 813 814
v 10.8 12.7542 0
v 10.9563 12.7405 0
l 815 816
v 10.8 12.7542 0.3
v 10.6437 12.7405 0.3
l 817 818
v 10.6437 12.7405 0
v 10.8 12.7542 0
l 819 820
v 10.6437 12.7405 0.3
v 10.4922 12.6999 0.3
l 821 822
v 10.4922 12.6999 0
v 10.6437 12.7405 0
l 823 824
v 10.4922 12.6999 0.3
v 10.35 12.6336 0.3
l 825 826
v 10.35 12.6336 0
v 10.4922 12.6999 0
l 827 828
v 10.35 12.6336 0.3
v 10.2215 12.5436 0.3
l 829 830
v 10.2215 12.5436 0
v 10.35 12.6336 0
l 831 832
v 10.2215 12.5436 0.3
v 10.1106 12.4327 0.3
l 833 834
v 10.1106 12.4327 0
v 10.2215 12.5436 0
l 835 836
v 10.1106 12.4327 0.3
v 10.0206 12.3042 0.3
l 837 838
v 10.0206 12.3042 0
v 10.1106 12.4327 0
l 839 840
v 10.0206 12.3042 0.3
v 9.95428 12.162 0.3
l 841 842
v 9.95428 12.162 0
v 10.0206 12.3042 0
l 843 844
v 9.95428 12.162 0.3
v 9.91367 12.0104 0.3
l 845 846
v 9.91367 12.0104 0
v 9.95428 12.162 0
l 847 848
v 9.9 11.8542 0
v 9.91367 12.0104 0
l 849 850
v 9.91367 12.0104 0.3
v 9.9 11.8542 0.3
l 851 852
v 11.7 3.14584 0.3
v 11.7 11.8542 0.3
l 853 854
v 11.7 11.8542 0
v 11.7 3.14584 0
l 855 856
v 14.6847 2.93237 0
v 14.7 3.14584 0
l 857 858
v 14.7 3.14584 0.3
v 14.6847 2.93237 0.3
l 859 860
v 14.6392 2.72324 0
v 14.6847 2.93237 0
l 861 862
v 14.6847 2.93237 0.3
v 14.6392 2.72324 0.3
l 863 864
v 14.5644 2.52272 0
v 14.6392 2.72324 0
l 865 866
v 14.6392 2.72324 0.3
v 14.5644 2.52272 0.3
l 867 868
v 14.4619 2.33488 0
v 14.5644 2.52272 0
l 869 870
v 14.5644 2.52272 0.3
v 14.4619 2.33488 0.3
l 871 872
v 14.3336 2.16355 0
v 14.4619 2.33488 0
l 873 874
v 14.4619 2.33488 0.3
v 14.3336 2.16355 0.3
l 875 876
v 14.1823 2.01221 0
v 14.3336 2.16355 0
l 877 878
v 14.3336 2.16355 0.3
v 14.1823 2.01221 0.3
l 879 880
v 14.011 1.88396 0
v 14.1823 2.01221 0
l 881 882
v 14.1823 2.01221 0.3
v 14.011 1.88396 0.3
l 883 884
v 13.8231 1.78139 0
v 14.011 1.88396 0
l 885 886
v 14.011 1.88396 0.3
v 13.8231 1.78139 0.3
l 887 888
v 13.6226 1.7066 0
v 13.8231 1.78139 0
l 889 890
v 13.8231 1.78139 0.3
v 13.6226 1.7066 0.3
l 891 892
v 13.4135 1.66111 0
v 13.6226 1.7066 0
l 893 894
v 13.6226 1.7066 0.3
v 13.4135 1.66111 0.3
l 895 896
v 13.2 1.64584 0
v 13.4135 1.66111 0
l 897 898
v 13.4135 1.66111 0.3
v 13.2 1.64584 0.3
l 899 900
v 12.9865 1.66111 0
v 13.2 1.64584 0
l 901 902
v 13.2 1.64584 0.3
v 12.9865 1.66111 0.3
l 903 904
v 12.7774 1.7066 0
v 12.9865 1.66111 0
l 905 906
v 12.9865 1.66111 0.3
v 12.7774 1.7066 0.3
l 907 908
v 12.5769 1.78139 0
v 12.7774 1.7066 0
l 909 910
v 12.7774 1.7066 0.3
v 12.5769 1.78139 0.3
l 911 912
v 12.389 1.88396 0
v 12.5769 1.78139 0
l 913 914
v 12.5769 1.78139 0.3
v 12.389 1.88396 0.3
l 915 916
v 12.2177 2.01221 0
v 12.389 1.88396 0
l 917 918
v 12.389 1.88396 0.3
v 12.2177 2.01221 0.3
l 919 920
v 12.0664 2.16355 0
v 12.2177 2.01221 0
l 921 922
v 12.2177 2.01221 0.3
v 12.0664 2.16355 0.3
l 923 924
v 11.9381 2.33488 0
v 12.0664 2.16355 0
l 925 926
v 12.0664 2.16355 0.3
v 11.9381 2.33488 0.3
l 927 928
v 11.8356 2.52272 0
v 11.9381 2.33488 0
l 929 930
v 11.9381 2.33488 0.3
v 11.8356 2.52272 0.3
l 931 932
v 11.7608 2.72324 0
v 11.8356 2.52272 0
l 933 934
v 11.8356 2.52272 0.3
v 11.7608 2.72324 0.3
l 935 936
v 11.7153 2.93237 0
v 11.7608 2.72324 0
l 937 938
v 11.7608 2.72324 0.3
v 11.7153 2.93237 0.3
l 939 940
v 11.7 3.14584 0
v 11.7153 2.93237 0
l 941 942
v 11.7153 2.93237 0.3
v 11.7 3.14584 0.3
l 943 944
v 14.7 11.8542 0.3
v 14.7 3.14584 0.3
l 945 946
v 14.7 3.14584 0
v 14.7 11.8542 0
l 947 948
v 16.4863 12.0104 0
v 16.5 11.8542 0
l 949 950
v 16.5 11.8542 0.3
v 16.4863 12.0104 0.3
l 951 952
v 16.4863 12.0104 0.3
v 16.4457 12.162 0.3
l 953 954
v 16.4457 12.162 0
v 16.4863 12.0104 0
l 955 956
v 16.4457 12.162 0.3
v 16.3794 12.3042 0.3
l 957 958
v 16.3794 12.3042 0
v 16.4457 12.162 0
l 959 960
v 16.3794 12.3042 0.3
v 16.2894 12.4327 0.3
l 961 962
v 16.2894 12.4327 0
v 16.3794 12.3042 0
l 963 964
v 16.2894 12.4327 0.3
v 16.1785 12.5436 0.3
l 965 966
v 16.1785 12.5436 0
v 16.2894 12.4327 0
l 967 968
v 16.1785 12.5436 0.3
v 16.05 12.6336 0.3
l 969 970
v 16.05 12.6336 0
v 16.1785 12.5436 0
l 971 972
v 16.05 12.6336 0.3
v 15.9078 12.6999 0.3
l 973 974
v 15.9078 12.6999 0
v 16.05 12.6336 0
l 975 976
v 15.9078 12.6999 0.3
v 15.7563 12.7405 0.3
l 977 978
v 15.7563 12.7405 0
v 15.9078 12.6999 0
l 979 980
v 15.7563 12.7405 0.3
v 15.6 12.7542 0.3
l 981 982
v 15.6 12.7542 0
v 15.7563 12.7405 0
l 983 984
v 15.6 12.7542 0.3
v 15.4437 12.7405 0.3
l 985 986
v 15.4437 12.7405 0
v 15.6 12.7542 0
l 987 988
v 15.4437 12.7405 0.3
v 15.2922 12.6999 0.3
l 989 990
v 15.2922 12.6999 0
v 15.4437 12.7405 0
l 991 992
v 15.2922 12.6999 0.3
v 15.15 12.6336 0.3
l 993 994
v 15.15 12.6336 0
v 15.2922 12.6999 0
l 995 996
v 15.15 12.6336 0.3
v 15.0215 12.5436 0.3
l 997 998
v 15.0215 12.5436 0
v 15.15 12.6336 0
l 999 1000
v 15.0215 12.5436 0.3
v 14.9106 12.4327 0.3
l 1001 1002
v 14.9106 12.4327 0
v 15.0215 12.5436 0
l 1003 1004
v 14.9106 12.4327 0.3
v 14.8206 12.3042 0.3
l 1005 1006
v 14.8206 12.3042 0
v 14.9106 12.4327 0
l 1007 1008
v 14.8206 12.3042 0.3
v 14.7543 12.162 0.3
l 1009 1010
v 14.7543 12.162 0
v 14.8206 12.3042 0
l 1011 1012
v 14.7543 12.162 0.3
v 14.7137 12.0104 0.3
l 1013 1014
v 14.7137 12.0104 0
v 14.7543 12.162 0
l 1015 1016
v 14.7 11.8542 0
v 14.7137 12.0104 0
l 1017 1018
v 14.7137 12.0104 0.3
v 14.7 11.8542 0.3
l 1019 1020
v 16.5 3.14584 0.3
v 16.5 11.8542 0.3
l 1021 1022
v 16.5 11.8542 0
v 16.5 3.14584 0
l 1023 1024
v 19.4847 2.93237 0
v 19.5 3.14584 0
l 1025 1026
v 19.5 3.14584 0.3
v 19.4847 2.93237 0.3
l 1027 1028
v 19.4392 2.72324 0
v 19.4847 2.93237 0
l 1029 1030
v 19.4847 2.93237 0.3
v 19.4392 2.72324 0.3
l 1031 1032
v 19.3644 2.52272 0
v 19.4392 2.72324 0
l 1033 1034
v 19.4392 2.72324 0.3
v 19.3644 2.52272 0.3
l 1035 1036
v 19.2619 2.33488 0
v 19.3644 2.52272 0
l 1037 1038
v 19.3644 2.52272 0.3
v 19.2619 2.33488 0.3
l 1039 1040
v 19.1336 2.16355 0
v 19.2619 2.33488 0
l 1041 1042
v 19.2619 2.33488 0.3
v 19.1336 2.16355 0.3
l 1043 1044
v 18.9823 2.01221 0
v 19.1336 2.16355 0
l 1045 1046
v 19.1336 2.16355 0.3
v 18.9823 2.01221 0.3
l 1047 1048
v 18.811 1.88396 0
v 18.9823 2.01221 0
l 1049 1050
v 18.9823 2.01221 0.3
v 18.811 1.88396 0.3
l 1051 1052
v 18.6231 1.78139 0
v 18.811 1.88396 0
l 1053 1054
v 18.811 1.88396 0.3
v 18.6231 1.78139 0.3
l 1055 1056
v 18.4226 1.7066 0
v 18.6231 1.78139 0
l 1057 1058
v 18.6231 1.78139 0.3
v 18.4226 1.7066 0.3
l 1059 1060
v 18.2135 1.66111 0
v 18.4226 1.7066 0
l 1061 1062
v 18.4226 1.7066 0.3
v 18.2135 1.66111 0.3
l 1063 1064
v 18 1.64584 0
v 18.2135 1.66111 0
l 1065 1066
v 18.2135 1.66111 0.3
v 18 1.64584 0.3
l 1067 1068
v 17.7865 1.66111 0
v 18 1.64584 0
l 1069 1070
v 18 1.64584 0.3
v 17.7865 1.66111 0.3
l 1071 1072
v 17.5774 1.7066 0
v 17.7865 1.66111 0
l 1073 1074
v 17.7865 1.66111 0.3
v 17.5774 1.7066 0.3
l 1075 1076
v 17.3769 1.78139 0
v 17.5774 1.7066 0
l 1077 1078
v 17.5774 1.7066 0.3
v 17.3769 1.78139 0.3
l 1079 1080
v 17.189 1.88396 0
v 17.3769 1.78139 0
l 1081 1082
v 17.3769 1.78139 0.3
v 17.189 1.88396 0.3
l 1083 1084
v 17.0177 2.01221 0
v 17.189 1.88396 0
l 1085 1086
v 17.189 1.88396 0.3
v 17.0177 2.01221 0.3
l 1087 1088
v 16.8664 2.16355 0
v 17.0177 2.01221 0
l 1089 1090
v 17.0177 2.01221 0.3
v 16.8664 2.16355 0.3
l 1091 1092
v 16.7381 2.33488 0
v 16.8664 2.16355 0
l 1093 1094
v 16.8664 2.16355 0.3
v 16.7381 2.33488 0.3
l 1095 1096
v 16.6356 2.52272 0
v 16.7381 2.33488 0
l 1097 1098
v 16.7381 2.33488 0.3
v 16.6356 2.52272 0.3
l 1099 1100
v 16.5608 2.72324 0
v 16.6356 2.52272 0
l 1101 1102
v 16.6356 2.52272 0.3
v 16.5608 2.72324 0.3
l 1103 1104
v 16.5153 2.93237 0
v 16.5608 2.72324 0
l 1105 1106
v 16.5608 2.72324 0.3
v 16.5153 2.93237 0.3
l 1107 1108
v 16.5 3.14584 0
v 16.5153 2.93237 0
l 1109 1110
v 16.5153 2.93237 0.3
v 16.5 3.14584 0.3
l 1111 1112
v 19.5 6.7 0.3
v 19.5 3.14584 0.3
l 1113 1114
v 19.5 3.14584 0
v 19.5 6.7 0
l 1115 1116
v 19.8887 7.18746 0
v 20 7.2 0
l 1117 1118
v 20 7.2 0.3
v 19.8887 7.18746 0.3
l 1119 1120
v 19.7831 7.15048 0
v 19.8887 7.18746 0
l 1121 1122
v 19.8887 7.18746 0.3
v 19.7831 7.15048 0.3
l 1123 1124
v 19.6883 7.09092 0
v 19.7831 7.15048 0
l 1125 1126
v 19.7831 7.15048 0.3
v 19.6883 7.09092 0.3
l 1127 1128
v 19.6091 7.01174 0
v 19.6883 7.09092 0
l 1129 1130
v 19.6883 7.09092 0.3
v 19.6091 7.01174 0.3
l 1131 1132
v 19.5495 6.91694 0
v 19.6091 7.01174 0
l 1133 1134
v 19.6091 7.01174 0.3
v 19.5495 6.91694 0.3
l 1135 1136
v 19.5125 6.81126 0
v 19.5495 6.91694 0
l 1137 1138
v 19.5495 6.91694 0.3
v 19.5125 6.81126 0.3
l 1139 1140
v 19.5 6.7 0
v 19.5125 6.81126 0
l 1141 1142
v 19.5125 6.81126 0.3
v 19.5 6.7 0.3
l 1143 1144
v 21.6 7.2 0.3
v 20 7.2 0.3
l 1145 1146
v 20 7.2 0
v 21.6 7.2 0
l 1147 1148
v 21.682 7.88582 0
v 21.6 7.8 0
l 1149 1150
v 21.5573 7.73236 2
v 21.6257 7.83156 2
l 1151 1152
v 21.5145 7.61966 2
v 21.5573 7.73236 2
l 1153 1154
v 21.5 7.5 2
v 21.5145 7.61966 2
l 1155 1156
v 21.5145 7.38034 2
v 21.5 7.5 2
l 1157 1158
v 21.5573 7.26764 2
v 21.5145 7.38034 2
l 1159 1160
v 21.6257 7.16844 2
v 21.5573 7.26764 2
l 1161 1162
v 21.6 7.2 0
v 21.682 7.11418 0
l 1163 1164
v 21.716 7.08851 2
v 21.6257 7.16844 2
l 1165 1166
v 21.682 7.11418 0
v 21.7819 7.0501 0
l 1167 1168
v 21.8227 7.03249 2
v 21.716 7.08851 2
l 1169 1170
v 21.7819 7.0501 0
v 21.894 7.01136 0
l 1171 1172
v 21.9397 7.00365 2
v 21.8227 7.03249 2
l 1173 1174
v 21.894 7.01136 0
v 22.0122 7.00015 0
l 1175 1176
v 22.0603 7.00365 2
v 21.9397 7.00365 2
l 1177 1178
v 22.0122 7.00015 0
v 22.1296 7.0171 0
l 1179 1180
v 22.1773 7.03249 2
v 22.0603 7.00365 2
l 1181 1182
v 22.1296 7.0171 0
v 22.2398 7.06125 0
l 1183 1184
v 22.284 7.08851 2
v 22.1773 7.03249 2
l 1185 1186
v 22.2398 7.06125 0
v 22.3364 7.13013 0
l 1187 1188
v 22.3743 7.16844 2
v 22.284 7.08851 2
l 1189 1190
v 22.3364 7.13013 0
v 22.4141 7.21983 0
l 1191 1192
v 22.4427 7.26764 2
v 22.3743 7.16844 2
l 1193 1194
v 22.4141 7.21983 0
v 22.4685 7.32533 0
l 1195 1196
v 22.4855 7.38034 2
v 22.4427 7.26764 2
l 1197 1198
v 22.4685 7.32533 0
v 22.4965 7.44066 0
l 1199 1200
v 22.5 7.5 2
v 22.4855 7.38034 2
l 1201 1202
v 22.4965 7.44066 0
v 22.4965 7.55934 0
l 1203 1204
v 22.4855 7.61966 2
v 22.5 7.5 2
l 1205 1206
v 22.4965 7.55934 0
v 22.4685 7.67467 0
l 1207 1208
v 22.4427 7.73236 2
v 22.4855 7.61966 2
l 1209 1210
v 22.4685 7.67467 0
v 22.4141 7.78016 0
l 1211 1212
v 22.3743 7.83156 2
v 22.4427 7.73236 2
l 1213 1214
v 22.4141 7.78016 0
v 22.3364 7.86987 0
l 1215 1216
v 22.284 7.91149 2
v 22.3743 7.83156 2
l 1217 1218
v 22.3364 7.86987 0
v 22.2398 7.93875 0
l 1219 1220
v 22.1773 7.96751 2
v 22.284 7.91149 2
l 1221 1222
v 22.2398 7.93875 0
v 22.1296 7.9829 0
l 1223 1224
v 22.0603 7.99635 2
v 22.1773 7.96751 2
l 1225 1226
v 22.1296 7.9829 0
v 22.0122 7.99985 0
l 1227 1228
v 21.9397 7.99635 2
v 22.0603 7.99635 2
l 1229 1230
v 22.0122 7.99985 0
v 21.894 7.98864 0
l 1231 1232
v 21.8227 7.96751 2
v 21.9397 7.99635 2
l 1233 1234
v 21.894 7.98864 0
v 21.7819 7.9499 0
l 1235 1236
v 21.716 7.91149 2
v 21.8227 7.96751 2
l 1237 1238
v 21.7819 7.9499 0
v 21.682 7.88582 0
l 1239 1240
v 21.6257 7.83156 2
v 21.716 7.91149 2
l 1241 1242
v 2.31803 7.11418 0
v 2.4 7.2 0
l 1243 1244
v 2.44273 7.26764 2
v 2.37426 7.16844 2
l 1245 1246
v 2.48547 7.38034 2
v 2.44273 7.26764 2
l 1247 1248
v 2.5 7.5 2
v 2.48547 7.38034 2
l 1249 1250
v 2.48547 7.61966 2
v 2.5 7.5 2
l 1251 1252
v 2.44273 7.73236 2
v 2.48547 7.61966 2
l 1253 1254
v 2.37426 7.83156 2
v 2.44273 7.73236 2
l 1255 1256
v 2.4 7.8 0
v 2.31803 7.88582 0
l 1257 1258
v 2.28403 7.91149 2
v 2.37426 7.83156 2
l 1259 1260
v 2.31803 7.88582 0
v 2.21814 7.9499 0
l 1261 1262
v 2.1773 7.96751 2
v 2.28403 7.91149 2
l 1263 1264
v 2.21814 7.9499 0
v 2.10597 7.98864 0
l 1265 1266
v 2.06027 7.99635 2
v 2.1773 7.96751 2
l 1267 1268
v 2.10597 7.98864 0
v 1.98782 7.99985 0
l 1269 1270
v 1.93973 7.99635 2
v 2.06027 7.99635 2
l 1271 1272
v 1.98782 7.99985 0
v 1.87036 7.9829 0
l 1273 1274
v 1.8227 7.96751 2
v 1.93973 7.99635 2
l 1275 1276
v 1.87036 7.9829 0
v 1.76021 7.93875 0
l 1277 1278
v 1.71597 7.91149 2
v 1.8227 7.96751 2
l 1279 1280
v 1.76021 7.93875 0
v 1.66356 7.86987 0
l 1281 1282
v 1.62574 7.83156 2
v 1.71597 7.91149 2
l 1283 1284
v 1.66356 7.86987 0
v 1.58587 7.78016 0
l 1285 1286
v 1.55727 7.73236 2
v 1.62574 7.83156 2
l 1287 1288
v 1.58587 7.78016 0
v 1.5315 7.67467 0
l 1289 1290
v 1.51453 7.61966 2
v 1.55727 7.73236 2
l 1291 1292
v 1.5315 7.67467 0
v 1.50353 7.55934 0
l 1293 1294
v 1.5 7.5 2
v 1.51453 7.61966 2
l 1295 1296
v 1.50353 7.55934 0
v 1.50353 7.44066 0
l 1297 1298
v 1.51453 7.38034 2
v 1.5 7.5 2
l 1299 1300
v 1.50353 7.44066 0
v 1.5315 7.32533 0
l 1301 1302
v 1.55727 7.26764 2
v 1.51453 7.38034 2
l 1303 1304
v 1.5315 7.32533 0
v 1.58587 7.21984 0
l 1305 1306
v 1.62574 7.16844 2
v 1.55727 7.26764 2
l 1307 1308
v 1.58587 7.21984 0
v 1.66356 7.13013 0
l 1309 1310
v 1.71597 7.08851 2
v 1.62574 7.16844 2
l 1311 1312
v 1.66356 7.13013 0
v 1.76021 7.06125 0
l 1313 1314
v 1.8227 7.03249 2
v 1.71597 7.08851 2
l 1315 1316
v 1.76021 7.06125 0
v 1.87036 7.0171 0
l 1317 1318
v 1.93973 7.00365 2
v 1.8227 7.03249 2
l 1319 1320
v 1.87036 7.0171 0
v 1.98782 7.00015 0
l 1321 1322
v 2.06027 7.00365 2
v 1.93973 7.00365 2
l 1323 1324
v 1.98782 7.00015 0
v 2.10597 7.01136 0
l 1325 1326
v 2.1773 7.03249 2
v 2.06027 7.00365 2
l 1327 1328
v 2.10597 7.01136 0
v 2.21814 7.0501 0
l 1329 1330
v 2.28403 7.08851 2
v 2.1773 7.03249 2
l 1331 1332
v 2.21814 7.0501 0
v 2.31803 7.11418 0
l 1333 1334
v 2.37426 7.16844 2
v 2.28403 7.08851 2
l 1335 1336
