# Wavefront OBJ file written 2026-03-16T21:22:53
o channelFlow_edgeMesh

# points : 680
# lines  : 684

# <points count="680">
v 21.6 7.8 0.3
v 21.6 7.8 0
v 2.4 7.8 0.3
v 2.4 7.8 0
v 2.4 7.2 0.3
v 2.4 7.2 0
v 21.6 7.2 0.3
v 21.6 7.2 0
v 19.4 7.8 0.3
v 19.4 7.8 0
v 18.9125 7.41126 0
v 18.9 7.3 0
v 18.9 7.3 0.3
v 18.9125 7.41126 0.3
v 18.9495 7.51694 0
v 18.9495 7.51694 0.3
v 19.0091 7.61174 0
v 19.0091 7.61174 0.3
v 19.0883 7.69092 0
v 19.0883 7.69092 0.3
v 19.1831 7.75048 0
v 19.1831 7.75048 0.3
v 19.2887 7.78746 0
v 19.2887 7.78746 0.3
v 18.9 3.14584 0.3
v 18.9 3.14584 0
v 17.1137 2.98955 0
v 17.1 3.14584 0
v 17.1 3.14584 0.3
v 17.1137 2.98955 0.3
v 17.1543 2.83802 0.3
v 17.1543 2.83802 0
v 17.2206 2.69584 0.3
v 17.2206 2.69584 0
v 17.3106 2.56733 0.3
v 17.3106 2.56733 0
v 17.4215 2.4564 0.3
v 17.4215 2.4564 0
v 17.55 2.36642 0.3
v 17.55 2.36642 0
v 17.6922 2.30011 0.3
v 17.6922 2.30011 0
v 17.8437 2.25951 0.3
v 17.8437 2.25951 0
v 18 2.24584 0.3
v 18 2.24584 0
v 18.1563 2.25951 0.3
v 18.1563 2.25951 0
v 18.3078 2.30011 0.3
v 18.3078 2.30011 0
v 18.45 2.36642 0.3
v 18.45 2.36642 0
v 18.5785 2.4564 0.3
v 18.5785 2.4564 0
v 18.6894 2.56733 0.3
v 18.6894 2.56733 0
v 18.7794 2.69584 0.3
v 18.7794 2.69584 0
v 18.8457 2.83802 0.3
v 18.8457 2.83802 0
v 18.8863 2.98955 0.3
v 18.8863 2.98955 0
v 17.1 11.8542 0.3
v 17.1 11.8542 0
v 14.1153 12.0676 0
v 14.1 11.8542 0
v 14.1 11.8542 0.3
v 14.1153 12.0676 0.3
v 14.1608 12.2768 0
v 14.1608 12.2768 0.3
v 14.2356 12.4773 0
v 14.2356 12.4773 0.3
v 14.3381 12.6651 0
v 14.3381 12.6651 0.3
v 14.4664 12.8365 0
v 14.4664 12.8365 0.3
v 14.6177 12.9878 0
v 14.6177 12.9878 0.3
v 14.789 13.116 0
v 14.789 13.116 0.3
v 14.9769 13.2186 0
v 14.9769 13.2186 0.3
v 15.1774 13.2934 0
v 15.1774 13.2934 0.3
v 15.3865 13.3389 0
v 15.3865 13.3389 0.3
v 15.6 13.3542 0
v 15.6 13.3542 0.3
v 15.8135 13.3389 0
v 15.8135 13.3389 0.3
v 16.0226 13.2934 0
v 16.0226 13.2934 0.3
v 16.2231 13.2186 0
v 16.2231 13.2186 0.3
v 16.411 13.116 0
v 16.411 13.116 0.3
v 16.5823 12.9878 0
v 16.5823 12.9878 0.3
v 16.7336 12.8365 0
v 16.7336 12.8365 0.3
v 16.8619 12.6651 0
v 16.8619 12.6651 0.3
v 16.9644 12.4773 0
v 16.9644 12.4773 0.3
v 17.0392 12.2768 0
v 17.0392 12.2768 0.3
v 17.0847 12.0676 0
v 17.0847 12.0676 0.3
v 14.1 3.14584 0.3
v 14.1 3.14584 0
v 12.3137 2.98955 0
v 12.3 3.14584 0
v 12.3 3.14584 0.3
v 12.3137 2.98955 0.3
v 12.3543 2.83802 0.3
v 12.3543 2.83802 0
v 12.4206 2.69584 0.3
v 12.4206 2.69584 0
v 12.5106 2.56733 0.3
v 12.5106 2.56733 0
v 12.6215 2.4564 0.3
v 12.6215 2.4564 0
v 12.75 2.36642 0.3
v 12.75 2.36642 0
v 12.8922 2.30011 0.3
v 12.8922 2.30011 0
v 13.0437 2.25951 0.3
v 13.0437 2.25951 0
v 13.2 2.24584 0.3
v 13.2 2.24584 0
v 13.3563 2.25951 0.3
v 13.3563 2.25951 0
v 13.5078 2.30011 0.3
v 13.5078 2.30011 0
v 13.65 2.36642 0.3
v 13.65 2.36642 0
v 13.7785 2.4564 0.3
v 13.7785 2.4564 0
v 13.8894 2.56733 0.3
v 13.8894 2.56733 0
v 13.9794 2.69584 0.3
v 13.9794 2.69584 0
v 14.0457 2.83802 0.3
v 14.0457 2.83802 0
v 14.0863 2.98955 0.3
v 14.0863 2.98955 0
v 12.3 11.8542 0.3
v 12.3 11.8542 0
v 9.31527 12.0676 0
v 9.3 11.8542 0
v 9.3 11.8542 0.3
v 9.31527 12.0676 0.3
v 9.36076 12.2768 0
v 9.36076 12.2768 0.3
v 9.43555 12.4773 0
v 9.43555 12.4773 0.3
v 9.53812 12.6651 0
v 9.53812 12.6651 0.3
v 9.66638 12.8365 0
v 9.66638 12.8365 0.3
v 9.81771 12.9878 0
v 9.81771 12.9878 0.3
v 9.98904 13.116 0
v 9.98904 13.116 0.3
v 10.1769 13.2186 0
v 10.1769 13.2186 0.3
v 10.3774 13.2934 0
v 10.3774 13.2934 0.3
v 10.5865 13.3389 0
v 10.5865 13.3389 0.3
v 10.8 13.3542 0
v 10.8 13.3542 0.3
v 11.0135 13.3389 0
v 11.0135 13.3389 0.3
v 11.2226 13.2934 0
v 11.2226 13.2934 0.3
v 11.4231 13.2186 0
v 11.4231 13.2186 0.3
v 11.611 13.116 0
v 11.611 13.116 0.3
v 11.7823 12.9878 0
v 11.7823 12.9878 0.3
v 11.9336 12.8365 0
v 11.9336 12.8365 0.3
v 12.0619 12.6651 0
v 12.0619 12.6651 0.3
v 12.1644 12.4773 0
v 12.1644 12.4773 0.3
v 12.2392 12.2768 0
v 12.2392 12.2768 0.3
v 12.2847 12.0676 0
v 12.2847 12.0676 0.3
v 9.3 3.14584 0.3
v 9.3 3.14584 0
v 7.51367 2.98955 0
v 7.5 3.14584 0
v 7.5 3.14584 0.3
v 7.51367 2.98955 0.3
v 7.55428 2.83802 0.3
v 7.55428 2.83802 0
v 7.62058 2.69584 0.3
v 7.62058 2.69584 0
v 7.71056 2.56733 0.3
v 7.71056 2.56733 0
v 7.82149 2.4564 0.3
v 7.82149 2.4564 0
v 7.95 2.36642 0.3
v 7.95 2.36642 0
v 8.09218 2.30011 0.3
v 8.09218 2.30011 0
v 8.24372 2.25951 0.3
v 8.24372 2.25951 0
v 8.4 2.24584 0.3
v 8.4 2.24584 0
v 8.55628 2.25951 0.3
v 8.55628 2.25951 0
v 8.70782 2.30011 0.3
v 8.70782 2.30011 0
v 8.85 2.36642 0.3
v 8.85 2.36642 0
v 8.97851 2.4564 0.3
v 8.97851 2.4564 0
v 9.08944 2.56733 0.3
v 9.08944 2.56733 0
v 9.17942 2.69584 0.3
v 9.17942 2.69584 0
v 9.24572 2.83802 0.3
v 9.24572 2.83802 0
v 9.28633 2.98955 0.3
v 9.28633 2.98955 0
v 7.5 11.8542 0.3
v 7.5 11.8542 0
v 4.51527 12.0676 0
v 4.5 11.8542 0
v 4.5 11.8542 0.3
v 4.51527 12.0676 0.3
v 4.56076 12.2768 0
v 4.56076 12.2768 0.3
v 4.63555 12.4773 0
v 4.63555 12.4773 0.3
v 4.73812 12.6651 0
v 4.73812 12.6651 0.3
v 4.86638 12.8365 0
v 4.86638 12.8365 0.3
v 5.01771 12.9878 0
v 5.01771 12.9878 0.3
v 5.18904 13.116 0
v 5.18904 13.116 0.3
v 5.37688 13.2186 0
v 5.37688 13.2186 0.3
v 5.5774 13.2934 0
v 5.5774 13.2934 0.3
v 5.78653 13.3389 0
v 5.78653 13.3389 0.3
v 6 13.3542 0
v 6 13.3542 0.3
v 6.21347 13.3389 0
v 6.21347 13.3389 0.3
v 6.4226 13.2934 0
v 6.4226 13.2934 0.3
v 6.62312 13.2186 0
v 6.62312 13.2186 0.3
v 6.81096 13.116 0
v 6.81096 13.116 0.3
v 6.98229 12.9878 0
v 6.98229 12.9878 0.3
v 7.13362 12.8365 0
v 7.13362 12.8365 0.3
v 7.26188 12.6651 0
v 7.26188 12.6651 0.3
v 7.36445 12.4773 0
v 7.36445 12.4773 0.3
v 7.43924 12.2768 0
v 7.43924 12.2768 0.3
v 7.48473 12.0676 0
v 7.48473 12.0676 0.3
v 4.5 8.3 0.3
v 4.5 8.3 0
v 4.11126 7.81254 0
v 4 7.8 0
v 4 7.8 0.3
v 4.11126 7.81254 0.3
v 4.21694 7.84952 0
v 4.21694 7.84952 0.3
v 4.31175 7.90908 0
v 4.31175 7.90908 0.3
v 4.39092 7.98826 0
v 4.39092 7.98826 0.3
v 4.45048 8.08306 0
v 4.45048 8.08306 0.3
v 4.48746 8.18874 0
v 4.48746 8.18874 0.3
v 4.5 7.2 0.3
v 4.5 7.2 0
v 4.6 7.2 0.3
v 4.6 7.2 0
v 5.08746 7.58874 0
v 5.1 7.7 0
v 5.1 7.7 0.3
v 5.08746 7.58874 0.3
v 5.05048 7.48306 0
v 5.05048 7.48306 0.3
v 4.99092 7.38826 0
v 4.99092 7.38826 0.3
v 4.91175 7.30908 0
v 4.91175 7.30908 0.3
v 4.81694 7.24952 0
v 4.81694 7.24952 0.3
v 4.71126 7.21254 0
v 4.71126 7.21254 0.3
v 5.1 11.8542 0.3
v 5.1 11.8542 0
v 6.88633 12.0104 0
v 6.9 11.8542 0
v 6.9 11.8542 0.3
v 6.88633 12.0104 0.3
v 6.84572 12.162 0.3
v 6.84572 12.162 0
v 6.77942 12.3042 0.3
v 6.77942 12.3042 0
v 6.68944 12.4327 0.3
v 6.68944 12.4327 0
v 6.57851 12.5436 0.3
v 6.57851 12.5436 0
v 6.45 12.6336 0.3
v 6.45 12.6336 0
v 6.30782 12.6999 0.3
v 6.30782 12.6999 0
v 6.15628 12.7405 0.3
v 6.15628 12.7405 0
v 6 12.7542 0.3
v 6 12.7542 0
v 5.84372 12.7405 0.3
v 5.84372 12.7405 0
v 5.69218 12.6999 0.3
v 5.69218 12.6999 0
v 5.55 12.6336 0.3
v 5.55 12.6336 0
v 5.42149 12.5436 0.3
v 5.42149 12.5436 0
v 5.31056 12.4327 0.3
v 5.31056 12.4327 0
v 5.22058 12.3042 0.3
v 5.22058 12.3042 0
v 5.15428 12.162 0.3
v 5.15428 12.162 0
v 5.11367 12.0104 0.3
v 5.11367 12.0104 0
v 6.9 3.14584 0.3
v 6.9 3.14584 0
v 9.88473 2.93237 0
v 9.9 3.14584 0
v 9.9 3.14584 0.3
v 9.88473 2.93237 0.3
v 9.83924 2.72324 0
v 9.83924 2.72324 0.3
v 9.76445 2.52272 0
v 9.76445 2.52272 0.3
v 9.66188 2.33488 0
v 9.66188 2.33488 0.3
v 9.53362 2.16355 0
v 9.53362 2.16355 0.3
v 9.38229 2.01221 0
v 9.38229 2.01221 0.3
v 9.21096 1.88396 0
v 9.21096 1.88396 0.3
v 9.02312 1.78139 0
v 9.02312 1.78139 0.3
v 8.8226 1.7066 0
v 8.8226 1.7066 0.3
v 8.61347 1.66111 0
v 8.61347 1.66111 0.3
v 8.4 1.64584 0
v 8.4 1.64584 0.3
v 8.18653 1.66111 0
v 8.18653 1.66111 0.3
v 7.9774 1.7066 0
v 7.9774 1.7066 0.3
v 7.77688 1.78139 0
v 7.77688 1.78139 0.3
v 7.58904 1.88396 0
v 7.58904 1.88396 0.3
v 7.41771 2.01221 0
v 7.41771 2.01221 0.3
v 7.26638 2.16355 0
v 7.26638 2.16355 0.3
v 7.13812 2.33488 0
v 7.13812 2.33488 0.3
v 7.03555 2.52272 0
v 7.03555 2.52272 0.3
v 6.96076 2.72324 0
v 6.96076 2.72324 0.3
v 6.91527 2.93237 0
v 6.91527 2.93237 0.3
v 9.9 11.8542 0.3
v 9.9 11.8542 0
v 11.6863 12.0104 0
v 11.7 11.8542 0
v 11.7 11.8542 0.3
v 11.6863 12.0104 0.3
v 11.6457 12.162 0.3
v 11.6457 12.162 0
v 11.5794 12.3042 0.3
v 11.5794 12.3042 0
v 11.4894 12.4327 0.3
v 11.4894 12.4327 0
v 11.3785 12.5436 0.3
v 11.3785 12.5436 0
v 11.25 12.6336 0.3
v 11.25 12.6336 0
v 11.1078 12.6999 0.3
v 11.1078 12.6999 0
v 10.9563 12.7405 0.3
v 10.9563 12.7405 0
v 10.8 12.7542 0.3
v 10.8 12.7542 0
v 10.6437 12.7405 0.3
v 10.6437 12.7405 0
v 10.4922 12.6999 0.3
v 10.4922 12.6999 0
v 10.35 12.6336 0.3
v 10.35 12.6336 0
v 10.2215 12.5436 0.3
v 10.2215 12.5436 0
v 10.1106 12.4327 0.3
v 10.1106 12.4327 0
v 10.0206 12.3042 0.3
v 10.0206 12.3042 0
v 9.95428 12.162 0.3
v 9.95428 12.162 0
v 9.91367 12.0104 0.3
v 9.91367 12.0104 0
v 11.7 3.14584 0.3
v 11.7 3.14584 0
v 14.6847 2.93237 0
v 14.7 3.14584 0
v 14.7 3.14584 0.3
v 14.6847 2.93237 0.3
v 14.6392 2.72324 0
v 14.6392 2.72324 0.3
v 14.5644 2.52272 0
v 14.5644 2.52272 0.3
v 14.4619 2.33488 0
v 14.4619 2.33488 0.3
v 14.3336 2.16355 0
v 14.3336 2.16355 0.3
v 14.1823 2.01221 0
v 14.1823 2.01221 0.3
v 14.011 1.88396 0
v 14.011 1.88396 0.3
v 13.8231 1.78139 0
v 13.8231 1.78139 0.3
v 13.6226 1.7066 0
v 13.6226 1.7066 0.3
v 13.4135 1.66111 0
v 13.4135 1.66111 0.3
v 13.2 1.64584 0
v 13.2 1.64584 0.3
v 12.9865 1.66111 0
v 12.9865 1.66111 0.3
v 12.7774 1.7066 0
v 12.7774 1.7066 0.3
v 12.5769 1.78139 0
v 12.5769 1.78139 0.3
v 12.389 1.88396 0
v 12.389 1.88396 0.3
v 12.2177 2.01221 0
v 12.2177 2.01221 0.3
v 12.0664 2.16355 0
v 12.0664 2.16355 0.3
v 11.9381 2.33488 0
v 11.9381 2.33488 0.3
v 11.8356 2.52272 0
v 11.8356 2.52272 0.3
v 11.7608 2.72324 0
v 11.7608 2.72324 0.3
v 11.7153 2.93237 0
v 11.7153 2.93237 0.3
v 14.7 11.8542 0.3
v 14.7 11.8542 0
v 16.4863 12.0104 0
v 16.5 11.8542 0
v 16.5 11.8542 0.3
v 16.4863 12.0104 0.3
v 16.4457 12.162 0.3
v 16.4457 12.162 0
v 16.3794 12.3042 0.3
v 16.3794 12.3042 0
v 16.2894 12.4327 0.3
v 16.2894 12.4327 0
v 16.1785 12.5436 0.3
v 16.1785 12.5436 0
v 16.05 12.6336 0.3
v 16.05 12.6336 0
v 15.9078 12.6999 0.3
v 15.9078 12.6999 0
v 15.7563 12.7405 0.3
v 15.7563 12.7405 0
v 15.6 12.7542 0.3
v 15.6 12.7542 0
v 15.4437 12.7405 0.3
v 15.4437 12.7405 0
v 15.2922 12.6999 0.3
v 15.2922 12.6999 0
v 15.15 12.6336 0.3
v 15.15 12.6336 0
v 15.0215 12.5436 0.3
v 15.0215 12.5436 0
v 14.9106 12.4327 0.3
v 14.9106 12.4327 0
v 14.8206 12.3042 0.3
v 14.8206 12.3042 0
v 14.7543 12.162 0.3
v 14.7543 12.162 0
v 14.7137 12.0104 0.3
v 14.7137 12.0104 0
v 16.5 3.14584 0.3
v 16.5 3.14584 0
v 19.4847 2.93237 0
v 19.5 3.14584 0
v 19.5 3.14584 0.3
v 19.4847 2.93237 0.3
v 19.4392 2.72324 0
v 19.4392 2.72324 0.3
v 19.3644 2.52272 0
v 19.3644 2.52272 0.3
v 19.2619 2.33488 0
v 19.2619 2.33488 0.3
v 19.1336 2.16355 0
v 19.1336 2.16355 0.3
v 18.9823 2.01221 0
v 18.9823 2.01221 0.3
v 18.811 1.88396 0
v 18.811 1.88396 0.3
v 18.6231 1.78139 0
v 18.6231 1.78139 0.3
v 18.4226 1.7066 0
v 18.4226 1.7066 0.3
v 18.2135 1.66111 0
v 18.2135 1.66111 0.3
v 18 1.64584 0
v 18 1.64584 0.3
v 17.7865 1.66111 0
v 17.7865 1.66111 0.3
v 17.5774 1.7066 0
v 17.5774 1.7066 0.3
v 17.3769 1.78139 0
v 17.3769 1.78139 0.3
v 17.189 1.88396 0
v 17.189 1.88396 0.3
v 17.0177 2.01221 0
v 17.0177 2.01221 0.3
v 16.8664 2.16355 0
v 16.8664 2.16355 0.3
v 16.7381 2.33488 0
v 16.7381 2.33488 0.3
v 16.6356 2.52272 0
v 16.6356 2.52272 0.3
v 16.5608 2.72324 0
v 16.5608 2.72324 0.3
v 16.5153 2.93237 0
v 16.5153 2.93237 0.3
v 19.5 6.7 0.3
v 19.5 6.7 0
v 19.8887 7.18746 0
v 20 7.2 0
v 20 7.2 0.3
v 19.8887 7.18746 0.3
v 19.7831 7.15048 0
v 19.7831 7.15048 0.3
v 19.6883 7.09092 0
v 19.6883 7.09092 0.3
v 19.6091 7.01174 0
v 19.6091 7.01174 0.3
v 19.5495 6.91694 0
v 19.5495 6.91694 0.3
v 19.5125 6.81126 0
v 19.5125 6.81126 0.3
v 21.682 7.88582 0
v 21.5573 7.73236 2
v 21.6257 7.83156 2
v 21.5145 7.61966 2
v 21.5 7.5 2
v 21.5145 7.38034 2
v 21.5573 7.26764 2
v 21.6257 7.16844 2
v 21.682 7.11418 0
v 21.716 7.08851 2
v 21.7819 7.0501 0
v 21.8227 7.03249 2
v 21.894 7.01136 0
v 21.9397 7.00365 2
v 22.0122 7.00015 0
v 22.0603 7.00365 2
v 22.1296 7.0171 0
v 22.1773 7.03249 2
v 22.2398 7.06125 0
v 22.284 7.08851 2
v 22.3364 7.13013 0
v 22.3743 7.16844 2
v 22.4141 7.21983 0
v 22.4427 7.26764 2
v 22.4685 7.32533 0
v 22.4855 7.38034 2
v 22.4965 7.44066 0
v 22.5 7.5 2
v 22.4965 7.55934 0
v 22.4855 7.61966 2
v 22.4685 7.67467 0
v 22.4427 7.73236 2
v 22.4141 7.78016 0
v 22.3743 7.83156 2
v 22.3364 7.86987 0
v 22.284 7.91149 2
v 22.2398 7.93875 0
v 22.1773 7.96751 2
v 22.1296 7.9829 0
v 22.0603 7.99635 2
v 22.0122 7.99985 0
v 21.9397 7.99635 2
v 21.894 7.98864 0
v 21.8227 7.96751 2
v 21.7819 7.9499 0
v 21.716 7.91149 2
v 2.31803 7.11418 0
v 2.44273 7.26764 2
v 2.37426 7.16844 2
v 2.48547 7.38034 2
v 2.5 7.5 2
v 2.48547 7.61966 2
v 2.44273 7.73236 2
v 2.37426 7.83156 2
v 2.31803 7.88582 0
v 2.28403 7.91149 2
v 2.21814 7.9499 0
v 2.1773 7.96751 2
v 2.10597 7.98864 0
v 2.06027 7.99635 2
v 1.98782 7.99985 0
v 1.93973 7.99635 2
v 1.87036 7.9829 0
v 1.8227 7.96751 2
v 1.76021 7.93875 0
v 1.71597 7.91149 2
v 1.66356 7.86987 0
v 1.62574 7.83156 2
v 1.58587 7.78016 0
v 1.55727 7.73236 2
v 1.5315 7.67467 0
v 1.51453 7.61966 2
v 1.50353 7.55934 0
v 1.5 7.5 2
v 1.50353 7.44066 0
v 1.51453 7.38034 2
v 1.5315 7.32533 0
v 1.55727 7.26764 2
v 1.58587 7.21984 0
v 1.62574 7.16844 2
v 1.66356 7.13013 0
v 1.71597 7.08851 2
v 1.76021 7.06125 0
v 1.8227 7.03249 2
v 1.87036 7.0171 0
v 1.93973 7.00365 2
v 1.98782 7.00015 0
v 2.06027 7.00365 2
v 2.10597 7.01136 0
v 2.1773 7.03249 2
v 2.21814 7.0501 0
v 2.28403 7.08851 2
v 21.5453 7.29202 0.3
v 21.5115 7.39357 0.3
v 21.5 7.5 0.3
v 21.5115 7.60643 0.3
v 21.5453 7.70798 0.3
v 2.48854 7.39357 0.3
v 2.45469 7.29202 0.3
v 2.45469 7.70798 0.3
v 2.48854 7.60643 0.3
v 2.5 7.5 0.3
# </points>

# <edges count="684">
l 9 1
l 2 10
l 11 12
l 13 14
l 15 11
l 14 16
l 17 15
l 16 18
l 19 17
l 18 20
l 21 19
l 20 22
l 23 21
l 22 24
l 10 23
l 24 9
l 25 13
l 12 26
l 27 28
l 29 30
l 30 31
l 32 27
l 31 33
l 34 32
l 33 35
l 36 34
l 35 37
l 38 36
l 37 39
l 40 38
l 39 41
l 42 40
l 41 43
l 44 42
l 43 45
l 46 44
l 45 47
l 48 46
l 47 49
l 50 48
l 49 51
l 52 50
l 51 53
l 54 52
l 53 55
l 56 54
l 55 57
l 58 56
l 57 59
l 60 58
l 59 61
l 62 60
l 26 62
l 61 25
l 63 29
l 28 64
l 65 66
l 67 68
l 69 65
l 68 70
l 71 69
l 70 72
l 73 71
l 72 74
l 75 73
l 74 76
l 77 75
l 76 78
l 79 77
l 78 80
l 81 79
l 80 82
l 83 81
l 82 84
l 85 83
l 84 86
l 87 85
l 86 88
l 89 87
l 88 90
l 91 89
l 90 92
l 93 91
l 92 94
l 95 93
l 94 96
l 97 95
l 96 98
l 99 97
l 98 100
l 101 99
l 100 102
l 103 101
l 102 104
l 105 103
l 104 106
l 107 105
l 106 108
l 64 107
l 108 63
l 109 67
l 66 110
l 111 112
l 113 114
l 114 115
l 116 111
l 115 117
l 118 116
l 117 119
l 120 118
l 119 121
l 122 120
l 121 123
l 124 122
l 123 125
l 126 124
l 125 127
l 128 126
l 127 129
l 130 128
l 129 131
l 132 130
l 131 133
l 134 132
l 133 135
l 136 134
l 135 137
l 138 136
l 137 139
l 140 138
l 139 141
l 142 140
l 141 143
l 144 142
l 143 145
l 146 144
l 110 146
l 145 109
l 147 113
l 112 148
l 149 150
l 151 152
l 153 149
l 152 154
l 155 153
l 154 156
l 157 155
l 156 158
l 159 157
l 158 160
l 161 159
l 160 162
l 163 161
l 162 164
l 165 163
l 164 166
l 167 165
l 166 168
l 169 167
l 168 170
l 171 169
l 170 172
l 173 171
l 172 174
l 175 173
l 174 176
l 177 175
l 176 178
l 179 177
l 178 180
l 181 179
l 180 182
l 183 181
l 182 184
l 185 183
l 184 186
l 187 185
l 186 188
l 189 187
l 188 190
l 191 189
l 190 192
l 148 191
l 192 147
l 193 151
l 150 194
l 195 196
l 197 198
l 198 199
l 200 195
l 199 201
l 202 200
l 201 203
l 204 202
l 203 205
l 206 204
l 205 207
l 208 206
l 207 209
l 210 208
l 209 211
l 212 210
l 211 213
l 214 212
l 213 215
l 216 214
l 215 217
l 218 216
l 217 219
l 220 218
l 219 221
l 222 220
l 221 223
l 224 222
l 223 225
l 226 224
l 225 227
l 228 226
l 227 229
l 230 228
l 194 230
l 229 193
l 231 197
l 196 232
l 233 234
l 235 236
l 237 233
l 236 238
l 239 237
l 238 240
l 241 239
l 240 242
l 243 241
l 242 244
l 245 243
l 244 246
l 247 245
l 246 248
l 249 247
l 248 250
l 251 249
l 250 252
l 253 251
l 252 254
l 255 253
l 254 256
l 257 255
l 256 258
l 259 257
l 258 260
l 261 259
l 260 262
l 263 261
l 262 264
l 265 263
l 264 266
l 267 265
l 266 268
l 269 267
l 268 270
l 271 269
l 270 272
l 273 271
l 272 274
l 275 273
l 274 276
l 232 275
l 276 231
l 277 235
l 234 278
l 279 280
l 281 282
l 283 279
l 282 284
l 285 283
l 284 286
l 287 285
l 286 288
l 289 287
l 288 290
l 291 289
l 290 292
l 278 291
l 292 277
l 3 281
l 280 4
l 293 5
l 6 294
l 295 293
l 294 296
l 297 298
l 299 300
l 301 297
l 300 302
l 303 301
l 302 304
l 305 303
l 304 306
l 307 305
l 306 308
l 309 307
l 308 310
l 296 309
l 310 295
l 311 299
l 298 312
l 313 314
l 315 316
l 316 317
l 318 313
l 317 319
l 320 318
l 319 321
l 322 320
l 321 323
l 324 322
l 323 325
l 326 324
l 325 327
l 328 326
l 327 329
l 330 328
l 329 331
l 332 330
l 331 333
l 334 332
l 333 335
l 336 334
l 335 337
l 338 336
l 337 339
l 340 338
l 339 341
l 342 340
l 341 343
l 344 342
l 343 345
l 346 344
l 345 347
l 348 346
l 312 348
l 347 311
l 349 315
l 314 350
l 351 352
l 353 354
l 355 351
l 354 356
l 357 355
l 356 358
l 359 357
l 358 360
l 361 359
l 360 362
l 363 361
l 362 364
l 365 363
l 364 366
l 367 365
l 366 368
l 369 367
l 368 370
l 371 369
l 370 372
l 373 371
l 372 374
l 375 373
l 374 376
l 377 375
l 376 378
l 379 377
l 378 380
l 381 379
l 380 382
l 383 381
l 382 384
l 385 383
l 384 386
l 387 385
l 386 388
l 389 387
l 388 390
l 391 389
l 390 392
l 393 391
l 392 394
l 350 393
l 394 349
l 395 353
l 352 396
l 397 398
l 399 400
l 400 401
l 402 397
l 401 403
l 404 402
l 403 405
l 406 404
l 405 407
l 408 406
l 407 409
l 410 408
l 409 411
l 412 410
l 411 413
l 414 412
l 413 415
l 416 414
l 415 417
l 418 416
l 417 419
l 420 418
l 419 421
l 422 420
l 421 423
l 424 422
l 423 425
l 426 424
l 425 427
l 428 426
l 427 429
l 430 428
l 429 431
l 432 430
l 396 432
l 431 395
l 433 399
l 398 434
l 435 436
l 437 438
l 439 435
l 438 440
l 441 439
l 440 442
l 443 441
l 442 444
l 445 443
l 444 446
l 447 445
l 446 448
l 449 447
l 448 450
l 451 449
l 450 452
l 453 451
l 452 454
l 455 453
l 454 456
l 457 455
l 456 458
l 459 457
l 458 460
l 461 459
l 460 462
l 463 461
l 462 464
l 465 463
l 464 466
l 467 465
l 466 468
l 469 467
l 468 470
l 471 469
l 470 472
l 473 471
l 472 474
l 475 473
l 474 476
l 477 475
l 476 478
l 434 477
l 478 433
l 479 437
l 436 480
l 481 482
l 483 484
l 484 485
l 486 481
l 485 487
l 488 486
l 487 489
l 490 488
l 489 491
l 492 490
l 491 493
l 494 492
l 493 495
l 496 494
l 495 497
l 498 496
l 497 499
l 500 498
l 499 501
l 502 500
l 501 503
l 504 502
l 503 505
l 506 504
l 505 507
l 508 506
l 507 509
l 510 508
l 509 511
l 512 510
l 511 513
l 514 512
l 513 515
l 516 514
l 480 516
l 515 479
l 517 483
l 482 518
l 519 520
l 521 522
l 523 519
l 522 524
l 525 523
l 524 526
l 527 525
l 526 528
l 529 527
l 528 530
l 531 529
l 530 532
l 533 531
l 532 534
l 535 533
l 534 536
l 537 535
l 536 538
l 539 537
l 538 540
l 541 539
l 540 542
l 543 541
l 542 544
l 545 543
l 544 546
l 547 545
l 546 548
l 549 547
l 548 550
l 551 549
l 550 552
l 553 551
l 552 554
l 555 553
l 554 556
l 557 555
l 556 558
l 559 557
l 558 560
l 561 559
l 560 562
l 518 561
l 562 517
l 563 521
l 520 564
l 565 566
l 567 568
l 569 565
l 568 570
l 571 569
l 570 572
l 573 571
l 572 574
l 575 573
l 574 576
l 577 575
l 576 578
l 564 577
l 578 563
l 7 567
l 566 8
l 579 2
l 580 581
l 582 580
l 583 582
l 584 583
l 585 584
l 586 585
l 8 587
l 588 586
l 587 589
l 590 588
l 589 591
l 592 590
l 591 593
l 594 592
l 593 595
l 596 594
l 595 597
l 598 596
l 597 599
l 600 598
l 599 601
l 602 600
l 601 603
l 604 602
l 603 605
l 606 604
l 605 607
l 608 606
l 607 609
l 610 608
l 609 611
l 612 610
l 611 613
l 614 612
l 613 615
l 616 614
l 615 617
l 618 616
l 617 619
l 620 618
l 619 621
l 622 620
l 621 623
l 624 622
l 623 579
l 581 624
l 625 6
l 626 627
l 628 626
l 629 628
l 630 629
l 631 630
l 632 631
l 4 633
l 634 632
l 633 635
l 636 634
l 635 637
l 638 636
l 637 639
l 640 638
l 639 641
l 642 640
l 641 643
l 644 642
l 643 645
l 646 644
l 645 647
l 648 646
l 647 649
l 650 648
l 649 651
l 652 650
l 651 653
l 654 652
l 653 655
l 656 654
l 655 657
l 658 656
l 657 659
l 660 658
l 659 661
l 662 660
l 661 663
l 664 662
l 663 665
l 666 664
l 665 667
l 668 666
l 667 669
l 670 668
l 669 625
l 627 670
l 1 2
l 4 3
l 5 6
l 8 7
l 7 671
l 671 672
l 672 673
l 673 674
l 674 675
l 675 1
l 676 677
l 3 678
l 678 679
l 679 680
l 680 676
l 677 5
# </edges>
